<svg viewBox="0 0 1457 400" xmlns="http://www.w3.org/2000/svg"><g><g><g><g><g><line x1="50" y1="353.6940877601206" x2="45" y2="353.6940877601206" style="visibility: inherit;" fill="rgb(0, 0, 0)" stroke="rgb(204, 204, 204)" stroke-width="1px"></line><line x1="50" y1="310.4197514261093" x2="45" y2="310.4197514261093" style="visibility: inherit;" fill="rgb(0, 0, 0)" stroke="rgb(204, 204, 204)" stroke-width="1px"></line><line x1="50" y1="267.1454150920979" x2="45" y2="267.1454150920979" style="visibility: inherit;" fill="rgb(0, 0, 0)" stroke="rgb(204, 204, 204)" stroke-width="1px"></line><line x1="50" y1="223.87107875808655" x2="45" y2="223.87107875808655" style="visibility: inherit;" fill="rgb(0, 0, 0)" stroke="rgb(204, 204, 204)" stroke-width="1px"></line><line x1="50" y1="180.5967424240752" x2="45" y2="180.5967424240752" style="visibility: inherit;" fill="rgb(0, 0, 0)" stroke="rgb(204, 204, 204)" stroke-width="1px"></line><line x1="50" y1="137.32240609006382" x2="45" y2="137.32240609006382" style="visibility: inherit;" fill="rgb(0, 0, 0)" stroke="rgb(204, 204, 204)" stroke-width="1px"></line><line x1="50" y1="94.04806975605246" x2="45" y2="94.04806975605246" style="visibility: inherit;" fill="rgb(0, 0, 0)" stroke="rgb(204, 204, 204)" stroke-width="1px"></line><line x1="50" y1="50.77373342204109" x2="45" y2="50.77373342204109" style="visibility: inherit;" fill="rgb(0, 0, 0)" stroke="rgb(204, 204, 204)" stroke-width="1px"></line><line x1="50" y1="7.4993970880297205" x2="45" y2="7.4993970880297205" style="visibility: inherit;" fill="rgb(0, 0, 0)" stroke="rgb(204, 204, 204)" stroke-width="1px"></line></g><g transform="translate(40, 0)"><text x="0" y="353.6940877601206" dx="0em" dy="0.3em" style="text-anchor: end; visibility: inherit; font-family: Roboto, sans-serif; font-size: 12px; font-weight: 200;" fill="rgb(33, 33, 33)" stroke="none" stroke-width="1px">-700</text><text x="0" y="310.4197514261093" dx="0em" dy="0.3em" style="text-anchor: end; visibility: inherit; font-family: Roboto, sans-serif; font-size: 12px; font-weight: 200;" fill="rgb(33, 33, 33)" stroke="none" stroke-width="1px">-600</text><text x="0" y="267.1454150920979" dx="0em" dy="0.3em" style="text-anchor: end; visibility: inherit; font-family: Roboto, sans-serif; font-size: 12px; font-weight: 200;" fill="rgb(33, 33, 33)" stroke="none" stroke-width="1px">-500</text><text x="0" y="223.87107875808655" dx="0em" dy="0.3em" style="text-anchor: end; visibility: inherit; font-family: Roboto, sans-serif; font-size: 12px; font-weight: 200;" fill="rgb(33, 33, 33)" stroke="none" stroke-width="1px">-400</text><text x="0" y="180.5967424240752" dx="0em" dy="0.3em" style="text-anchor: end; visibility: inherit; font-family: Roboto, sans-serif; font-size: 12px; font-weight: 200;" fill="rgb(33, 33, 33)" stroke="none" stroke-width="1px">-300</text><text x="0" y="137.32240609006382" dx="0em" dy="0.3em" style="text-anchor: end; visibility: inherit; font-family: Roboto, sans-serif; font-size: 12px; font-weight: 200;" fill="rgb(33, 33, 33)" stroke="none" stroke-width="1px">-200</text><text x="0" y="94.04806975605246" dx="0em" dy="0.3em" style="text-anchor: end; visibility: inherit; font-family: Roboto, sans-serif; font-size: 12px; font-weight: 200;" fill="rgb(33, 33, 33)" stroke="none" stroke-width="1px">-100</text><text x="0" y="50.77373342204109" dx="0em" dy="0.3em" style="text-anchor: end; visibility: inherit; font-family: Roboto, sans-serif; font-size: 12px; font-weight: 200;" fill="rgb(33, 33, 33)" stroke="none" stroke-width="1px">0</text><text x="0" y="7.4993970880297205" dx="0em" dy="0.3em" style="text-anchor: end; visibility: inherit; font-family: Roboto, sans-serif; font-size: 12px; font-weight: 200;" fill="rgb(33, 33, 33)" stroke="none" stroke-width="1px">100</text></g><line x1="50" y1="0" x2="50" y2="377" fill="rgb(0, 0, 0)" stroke="rgb(204, 204, 204)" stroke-width="1px"></line></g></g><g transform="translate(50, 0)" clip-path="url(#clip_0)"><clipPath id="clip_0"><rect width="1407" height="377"></rect></clipPath><g><g><g><line x1="32.675892444104775" y1="0" x2="32.675892444104775" y2="377" fill="rgb(0, 0, 0)" stroke="rgb(66, 66, 66)" stroke-width="1px" opacity="0.25"></line><line x1="217.28286443210936" y1="0" x2="217.28286443210936" y2="377" fill="rgb(0, 0, 0)" stroke="rgb(66, 66, 66)" stroke-width="1px" opacity="0.25"></line><line x1="401.88983642011397" y1="0" x2="401.88983642011397" y2="377" fill="rgb(0, 0, 0)" stroke="rgb(66, 66, 66)" stroke-width="1px" opacity="0.25"></line><line x1="586.4968084081186" y1="0" x2="586.4968084081186" y2="377" fill="rgb(0, 0, 0)" stroke="rgb(66, 66, 66)" stroke-width="1px" opacity="0.25"></line><line x1="771.103780396123" y1="0" x2="771.103780396123" y2="377" fill="rgb(0, 0, 0)" stroke="rgb(66, 66, 66)" stroke-width="1px" opacity="0.25"></line><line x1="955.7107523841277" y1="0" x2="955.7107523841277" y2="377" fill="rgb(0, 0, 0)" stroke="rgb(66, 66, 66)" stroke-width="1px" opacity="0.25"></line><line x1="1140.3177243721323" y1="0" x2="1140.3177243721323" y2="377" fill="rgb(0, 0, 0)" stroke="rgb(66, 66, 66)" stroke-width="1px" opacity="0.25"></line><line x1="1324.9246963601367" y1="0" x2="1324.9246963601367" y2="377" fill="rgb(0, 0, 0)" stroke="rgb(66, 66, 66)" stroke-width="1px" opacity="0.25"></line></g><g><line x1="0" y1="353.6940877601206" x2="1407" y2="353.6940877601206" fill="rgb(0, 0, 0)" stroke="rgb(66, 66, 66)" stroke-width="1px" opacity="0.25"></line><line x1="0" y1="310.4197514261093" x2="1407" y2="310.4197514261093" fill="rgb(0, 0, 0)" stroke="rgb(66, 66, 66)" stroke-width="1px" opacity="0.25"></line><line x1="0" y1="267.1454150920979" x2="1407" y2="267.1454150920979" fill="rgb(0, 0, 0)" stroke="rgb(66, 66, 66)" stroke-width="1px" opacity="0.25"></line><line x1="0" y1="223.87107875808655" x2="1407" y2="223.87107875808655" fill="rgb(0, 0, 0)" stroke="rgb(66, 66, 66)" stroke-width="1px" opacity="0.25"></line><line x1="0" y1="180.5967424240752" x2="1407" y2="180.5967424240752" fill="rgb(0, 0, 0)" stroke="rgb(66, 66, 66)" stroke-width="1px" opacity="0.25"></line><line x1="0" y1="137.32240609006382" x2="1407" y2="137.32240609006382" fill="rgb(0, 0, 0)" stroke="rgb(66, 66, 66)" stroke-width="1px" opacity="0.25"></line><line x1="0" y1="94.04806975605246" x2="1407" y2="94.04806975605246" fill="rgb(0, 0, 0)" stroke="rgb(66, 66, 66)" stroke-width="1px" opacity="0.25"></line><line x1="0" y1="50.77373342204109" x2="1407" y2="50.77373342204109" fill="rgb(0, 0, 0)" stroke="rgb(66, 66, 66)" stroke-width="1px" opacity="0.25"></line><line x1="0" y1="7.4993970880297205" x2="1407" y2="7.4993970880297205" fill="rgb(0, 0, 0)" stroke="rgb(66, 66, 66)" stroke-width="1px" opacity="0.25"></line></g></g></g><g><g><line x1="0" y1="50.77373342204109" x2="1407" y2="50.77373342204109" fill="rgb(0, 0, 0)" stroke="rgb(153, 153, 153)" stroke-width="1.5px"></line></g></g><g><g><line x1="32.675892444104775" y1="0" x2="32.675892444104775" y2="377" fill="rgb(0, 0, 0)" stroke="rgb(153, 153, 153)" stroke-width="1.5px"></line></g></g><g><g><g><g><g><path stroke="rgb(0, 119, 187)" stroke-width="2px" d="M34.226591008804014,119.45003783209216L34.337355191996814,138.8375580075513L35.29731144633444,130.21232661661242L36.14650351747926,169.44973131868107L38.50947275892572,152.46405218745383L38.84176530850412,158.071572331694L41.13089176115539,176.32197975654492L41.315498733143386,179.88885114536683L42.09084801549301,203.21834209317768L42.755433114649826,184.3095348040659L44.04768191856586,192.5259682131034L44.121524707361054,196.0336781015351L44.41689586254187,184.7738288690029L48.219799485494754,201.05245386800843L49.659733867001194,186.84975621345185L50.1766333885676,198.10324604970864L52.46575984121886,182.39132479817815L53.46263748995409,164.42687379692353L54.0533798003157,174.93554592626134L54.31182956109891,168.6280584956326L56.084056492183755,182.562512669569L56.56403461935256,165.6581006761605L57.08093414091898,168.1818987978029L57.450148084894984,159.2365623042341L59.037768043991825,166.43487869802172L59.333139199172635,156.51500316071923L61.14228752465508,177.7487156626921L61.6591870462215,168.92485060400026L62.286850750980705,181.70048560495866L62.50837911736632,178.33161338615423L63.54217816049914,179.1456429699283L67.56661014983764,168.75221367947552L68.52656640417527,173.63447444746512L69.7818938136937,174.19071413194186L70.1141863632721,171.02283480052805L72.03409887194735,175.3928583669638L73.43711185905619,190.72147665044653L76.24313783327386,173.98300186744964L79.23377077947953,163.12113495743083L81.26444747134758,151.2369146584365L81.3752116545404,143.69564003049697L81.8921111761068,133.80015480592743L82.0397967536972,133.3249700461849L83.81202368478205,147.36650829242694L84.07047344556524,147.63577047848608L85.69501479905969,152.2496877363026L86.80265663098771,143.76024620651555L88.90717611165097,135.99113964812622L89.9778965491814,125.35816182505204L90.568638859543,117.81644616226677L91.15938116990463,111.92827630578276L93.22697925617028,103.85232023051144L95.10997037044793,107.04741015256829L95.77455546960475,111.14658439640698L96.10684801918315,103.01371864767091L96.62374754074955,101.70405647251962L96.69759032954477,99.37586445459297L96.80835451273757,97.98441169415669L98.432895866232,97.21486407054168L100.75894371328087,92.78660554089096L101.09123626285928,87.59212342190774L101.57121439002808,88.01175433801916L101.68197857322089,82.94085167884624L101.97734972840169,83.48763815812494L103.45420550430573,84.4458867680323L104.08186920906493,78.89272615317532L104.56184733623375,87.30407957593349L106.5556026337042,82.4370672671114L107.84785143762025,80.96981880278592L109.36162860792187,77.8946395571008L110.0631351014763,73.00743773934344L113.42298199165798,72.67398853879169L113.86603872442919,76.92174188860325L114.30909545720041,73.0120617389809L115.04752334515241,70.41560376153426L115.26905171153803,66.47255798420953L116.00747959949005,66.0475305941829L116.19208657147804,73.74441149020015L117.8535493193701,69.35666894654115L118.2966060521413,68.85889244091358L119.58885485605734,69.8371714351793L120.88110365997336,70.5624507709492L120.91802505437097,67.52028781758766L122.6164091966606,63.489804681068044L123.24407290141981,72.52831800854169L123.31791569021502,69.59841820061958L123.50252266220303,74.1231894887388L124.42555752214305,75.13905842001536L124.46247891654065,70.63621849440784L124.90553564931187,66.14891762905437L125.09014262129986,71.7882543682406L126.16086305883029,71.95865486168225L126.71468397479431,73.14910967356346L126.93621234117991,68.59774787407834L131.80983640166323,64.41704742997739L133.84051309353129,65.53853615194325L134.3574126150977,69.66893823335067L135.6496614190137,71.68371232574728L139.60025061955702,74.8008007665091L142.2216696217867,70.3186368787031L143.84621097528114,67.34474909623934L144.84308862401636,64.64582507047615L144.95385280720916,69.67740885230465L147.09529368227,76.06754597951462L149.38442013492127,71.18552236622402L150.6766689388373,68.5371990627683L151.93199634835574,66.36430507543272L152.44889586992215,74.8377379345705L152.52273865871734,74.76388327617025L152.55966005311495,80.21942150138831L154.7011009281758,81.09140966702087L158.5040045511287,93.80434955155775L160.01778172143034,97.81523312859933L161.16234494775597,93.15346794531241L165.59291227546808,93.18558531625094L166.25749737462488,94.96068725883562L166.3313401634201,93.93218682106131L168.17740988330013,98.63945027922861L170.2450079695658,91.5012570307398L170.7988288855298,90.1988705058602L172.71874139420504,83.98570322498986L173.49409067655466,84.93676719076969L173.75254043733787,79.28453677755577L175.34016039643473,78.74100037541427L177.7031296378812,77.58725694139217L178.736928681014,73.67608943829798L179.77072772414684,80.83080310174968L181.6906402328221,85.01691749926276L183.97976668547335,83.03956077868146L184.38590202384694,85.74335065413379L187.59806333643823,81.40913159933567L187.81959170282383,79.90962031806754L188.74262656276386,79.02904748625286L188.92723353475188,79.3037917298628L190.07179676107748,78.62184264261839L191.58557393137912,77.06251582075787L192.06555205854792,76.00950420131755L192.1393948473431,82.34977957130862L195.1300277935488,84.71388549232262L198.5267960781281,79.47039119656097L199.1544597828873,78.55822883210583L199.92980906523692,79.54681599792701L203.5481057162018,77.47285775109309L204.87727591451545,72.66152656015866L205.02496149210586,68.32130036812546L205.32033264728668,65.4933890164303L208.05251583270913,69.22606377033226L209.45552881981797,66.37173720616516L209.9724283413844,67.43181173732812L211.3754413284932,74.74308492105051L211.8184980612644,70.72358980188959L213.36919662596364,77.52930186528599L215.87985144500053,78.77632047441794L216.21214399457892,75.545462113853L216.32290817777172,73.4565967343643L219.1289341519894,68.99703175689385L219.2027769407846,67.650225001007L221.19653223825503,66.02786053575102L222.2303312813879,65.93480467984477L226.10707769313595,62.4900191654622L229.43000318892007,64.83365927221969L230.02074549928167,64.47389709854156L230.5376450208481,62.03004802365275L232.78985007910174,62.48527326271085L236.29738254687382,60.112738692353375L236.37122533566904,60.9391776177529L237.55270995639225,57.85894446813246L238.9557229435011,54.927612348167806L241.79867031211634,57.90914600874971L242.3524912280804,54.85209049638977L243.9770325815748,53.184580489201764L247.1153511053709,50.79681057690157L247.74301481013012,49.43587127733637L247.85377899332292,50.984411224069675L249.10910640284135,49.23242428411288L249.18294919163657,50.85937281120359L249.44139895241977,49.37058385941343L250.7705691507334,47.05661048976865L251.54591843308302,45.235916633189944L252.4320318986254,46.19233388138301L253.83504488573425,53.39449221826779L254.57347277368626,55.93783948956794L258.67174755182,52.864234425073036L259.040961495796,51.64384166601549L260.887031215676,50.34579999415673L261.5885377092304,48.66389005477786L262.0685158363993,50.94074044286824L262.2900442027849,49.60958201893244L262.7700223299537,61.99452906022763L264.87454181061696,63.44168361376921L265.7237338817618,66.45078406780941L265.90834085374973,63.58246534015825L266.7944543192922,64.29113976610466L268.0867031232082,61.5909925223709L268.9728165887506,63.10378101399507L272.5172704509203,60.82436944073049L273.40338391646276,62.08119021406153L275.3971392139332,59.89914413450953L276.4678596514636,66.2342025991544L278.4616149489341,63.52381621510664L279.9015493304405,65.91305985720649L280.0123135136333,62.463730788131315L280.4553702464045,67.448043747119L281.59993347273013,67.56819257357141L285.43975849008064,68.71783545054792L285.73512964526145,66.83973051320758L286.2889505612255,69.77069285156536L289.8703258177928,66.48713317501122L290.8302820721304,80.6193668304192L291.6425527488776,76.32911061255659L295.0393210334569,75.56946693051542L295.3346921886377,77.70712712925045L296.8484693589393,79.1526155827988L299.100674417193,82.01212826061433L300.24523764351864,80.58610043694748L302.6082068849651,78.75964185335751L303.2727919841219,79.56417700569851L303.6420059280979,75.08242105519636L303.6789273224955,73.35709743844065L304.3804338160499,69.62173707250525L305.22962588719474,75.64927365207481L305.93113238074915,73.28605421136521L307.7402807062316,68.74501456608284L308.10949465020764,72.33984987411922L308.2202588334004,76.64539693406698L308.77407974936443,75.8266583651905L309.99248576448525,71.27156840102415L313.61078241545016,69.65584579912442L314.90303121936614,66.66370738708078L316.490651178463,63.17260709248481L316.71217954484865,63.72057394481425L319.1859129694879,65.57313842468284L320.21971201262073,62.023510972509655L320.5889259565967,58.57909175082922L321.88117476051275,64.80191719715653L324.354908185152,61.74803375654376L325.5363928058752,62.9467937189316L327.7147550753337,64.27500712269682L329.00700387924974,61.5240480969878L329.4131392176233,62.106102270251235L329.8561959503945,66.76159892628397L330.48385965515376,67.6951958533437L334.69289861648025,64.0697120455567L335.98514742039634,60.638212988934086L336.2066757867819,57.32317739178219L338.7542520002164,54.57797016442245L340.3787933537108,60.11349083795888L341.44951379124126,60.44350080867232L341.63412076322925,64.85900835506989L341.9664133128076,66.92427082970326L345.28933880859176,64.3172336023306L345.40010299178454,63.91139389752018L346.43390203491737,64.92087866783349L346.80311597889335,61.27130113753977L348.9445568539542,62.271229417203195L350.23680565787026,59.906399269091345L351.4552116729911,63.72657984147406L351.4921330673887,60.36036256538959L353.70741673124473,57.237163549791596L358.2856696365473,54.52906593690235L358.3964338197401,57.239089403936745L360.4640319060057,58.62437538313095L361.4239881603433,56.33274543634362L361.5347523435361,66.49890428261278L362.31010162588575,64.49296746536065L362.568551386669,63.36640168948012L363.4177434578138,62.69457530359527L364.70999226172984,65.29418330137209L364.93152062811544,63.98091955445284L366.9991187143811,61.273164399980374L367.29448986956186,63.69757418777555L373.31267715637085,60.16574320591575L373.57112691715406,62.0377606120541L374.5680045658892,62.058356852312414L376.63560265215494,63.55616258255742L377.81708727287815,60.202408910536974L380.1800565143246,57.67014995358362L380.2908206975174,56.3603717117645L381.0292485854695,53.827699269655035L381.28769834625257,54.065906284455934L382.2476546005903,52.46340994455831L384.8321522084223,51.20430915944185L385.16444475800074,56.80837551314689L385.42289451878395,70.63378050698064L385.90287264595275,66.45732154851493L386.7151433227,62.59538131038452L388.11815630980885,59.719359481518325L389.22579814173685,59.48571631215175L390.07499021288163,56.21525268645486L390.7395753120385,63.27877874314359L393.32407291987056,60.73785464480634L396.09317749969057,76.07102284669082L397.57003327559465,71.59820515304541L398.45614674113705,68.28867572971465L400.85603737698113,66.4789535067366L403.73590613999403,68.04558746149459L403.920513111982,64.45895841343258L404.0312772951748,60.845309813631246L404.99123354951246,60.84034667376209L406.61577490300687,66.37828557330259L408.09263067891095,64.3183327603933L408.7202943836701,73.34526699244734L411.34171338589977,72.01661907659313L412.08014127385184,67.67933743427352L412.33859103463504,63.7949036773425L416.5107086015639,68.38524363164858L416.62147278475675,69.55798115313566L417.3968220671063,73.72153221395986L419.57518433656475,69.96592636771099L419.9443982805408,65.82579121911131L420.09208385813116,70.59254334655637L421.1628042956616,74.42990240032611L422.3812103107825,72.86445025700523L424.3011228194577,73.05016054341705L424.92878652421695,75.39365486219441L425.4456860457833,72.26714890377217L426.03642835614494,67.88379995171985L426.6640920609042,63.9489948440835L428.14094783680815,62.34307385171268L429.83933197909784,61.114150950781884L429.87625337349544,57.38163661741557L430.6885240502427,58.906395900759286L430.9469738110258,58.86115189158411L431.9807728541587,59.29209397428012L432.34998679813464,57.01456346153445L432.9407291084963,56.622307489305214L433.27302165807475,53.785901273009614L433.7899211796411,59.896521325515124L435.1929341667499,56.53064904121277L435.30369834994275,55.55753138006434L436.55902575946124,53.18049271886317L436.70671133705156,56.30801297876369L437.55590340819646,53.7735609041811L437.77743177458206,56.402212910313125L437.8512745633773,56.91900595298587L439.3281303392813,53.78418507596938L439.54965870566684,59.69347335616997L440.0296368328357,57.12022262448072L440.2142438048237,57.31702908699498L442.5772130462701,60.004171152933914L443.2787195398246,56.64863752036899L443.611012089403,54.75826708953955L445.27247483729496,60.75965001430232L446.12166690843986,63.10298857556266L446.1955096972351,59.28550388392852L446.2324310916327,57.059499501813896L448.41079336109107,54.06835516634441L454.2812950703096,51.54893546312655L456.2381289733825,55.47971783011904L456.9765568613345,52.71930026775076L458.12112008766013,50.71060176944195L458.45341263723856,49.25631859182794L459.0810763419978,55.01136160536476L459.708740046757,54.83108655076538L460.8533032730826,64.7216164061495L462.73629438736026,61.809039825907774L463.5854864585051,59.44617513751787L464.10238598007146,64.09621735750535L466.8345691654939,62.52372218626887L471.04360812682046,59.166054986972775L474.58806198899015,63.30190924360446L474.7726689609782,63.03499134528402L476.1018391592918,60.09387153259332L477.24640238561744,76.12334530865198L480.8277776421847,83.11235927528453L481.78773389652235,87.38743924579269L481.93541947411273,83.94116406135772L482.5261617844743,83.72896174257927L484.07686034917356,81.95238224656822L486.43982959062004,76.62366469498468L486.5505937738128,72.29815146003098L487.14133608417444,74.95465513169412L490.68578994634413,70.59723007540961L492.64262384941696,71.71967966814516L496.1501563171891,71.3485190319864L498.8084967138164,75.69867969268732L500.506880856106,75.05266559095989L501.54067989923885,75.77013141774403L503.71904216869723,77.68335172065099L504.3097844790589,73.92853172379954L505.4543477053845,69.59132338035032L508.11268810201176,65.48320721321747L508.8141945955662,63.102233444440664L510.4018145546631,59.70214896790376L511.14024244261503,56.73294336662186L513.281683317676,54.997995383463255L513.9093470224351,52.957256027334424L514.9062246711703,54.44313268851951L515.68157395352,51.888653963156095L516.1246306862912,53.097520523364835L516.6784516022552,50.68791480762838L516.8261371798455,48.417264361389236L517.4538008846048,54.3384053793782L518.7829710829185,51.55189429219204L520.2598268588225,48.849761194607886L521.4782328739433,56.37873987792415L525.5395862576794,54.44887343579454L527.4964201607523,51.91259501265393L527.6441057383427,50.85034785386936L528.3825336262947,49.01054311750019L530.1916819517771,46.979628989849694L531.2624023893076,47.613982529900525L532.8131009540068,45.667329401443745L534.6960920682844,46.24736382875466L535.5452841394293,44.712655978774194L537.7236464088877,44.70412821011987L537.8344105920805,45.340371545969354L540.2343012279246,47.04983177904376L541.305021665455,46.630038156172766L542.5603490749735,46.19533272964525L543.8525978788895,46.75389838153525L544.7017899500343,46.613129884696676L545.2925322603959,45.76065908983677L547.2493661634688,50.74786296327861L547.9877940514208,53.75600308707428L548.4677721785896,56.844194994782164L548.6893005449753,54.45605045545394L549.5015712217224,52.81507397499765L552.5291255623257,53.83340508957591L557.7350421723874,52.168128047729354L560.1718542026291,51.093963068916544L560.2087755970266,48.73162194595019L560.4303039634123,51.83993982517789L560.7625965129906,56.22934616201241L561.39026021775,57.24349023081491L561.8333169505211,56.887983058460115L562.0548453169067,59.163225604333704L564.2332075863652,55.9909950688855L566.0792773062452,56.68430001178367L567.8145828429324,57.38515960318837L569.1437530412461,68.4589214059186L570.0298665067885,64.66492780294908L570.1406306899813,64.98549775294714L572.9097352698014,74.85064672773429L573.131263636187,71.1851427950877L574.238905468115,68.95509030238908L574.5711980176934,65.43965948455967L574.7188835952838,65.02365141387459L574.9404119616694,64.08406710282674L578.3371802462487,65.16503685807096L578.3741016406464,64.74244848077512L578.6694727958271,61.164954304707294L578.8171583734176,61.145697955654825L579.4448220781768,61.332566777995005L581.8077913196232,71.67852285555075L582.5092978131777,67.18878534373236L583.764625222696,63.71986421116616L584.6507386882384,64.41553400857204L587.4936860568537,62.65800107995049L589.8197339039026,62.335293801514176L591.5181180461922,63.04762193132438L593.1426593996866,64.58836119110634L593.8441658932411,66.0600061265071L596.3178993178803,62.577819341180366L598.4593401929412,60.40129642101183L599.308532264086,64.01415474105987L602.2991652102917,64.2631122181929L603.3329642534245,61.63079743353646L603.9606279581837,68.90948420287054L604.034470746979,64.87172389121123L605.2159553677022,62.22728142133347L606.3605185940278,59.11903340348049L608.5388808634863,56.170436091271306L613.8186402623433,53.43449717971458L614.7047537278856,56.73231391464423L615.037046277464,62.54005858778105L615.2585746438497,64.77104630636506L616.9569587861394,61.73442821644261L617.0677229693321,61.7737936177065L617.7692294628865,65.11933456275719L618.4707359564409,65.5561664740882L622.6428535233698,66.7985928637893L623.1597530449362,62.847301455883716L626.9257352734916,61.57530985566275L627.7010845558411,62.67584206944149L630.3594249524684,63.89594243855475L630.7286388964444,63.4474615680546L632.6116300107221,61.09574995821415L635.2699704073493,58.634091047917394L636.0822410840965,58.3286501989043L636.7099047888559,57.79900154012471L638.4082889311454,56.18291318274065L639.6636163406639,57.565875754622404L642.0635069765079,57.41427475148232L644.0572622739783,54.40203568486075L645.017218528316,54.503622968777066L645.201825500304,56.00075130338714L647.8232445025336,53.38976019825978L649.1524147008473,53.25663785340395L650.9615630263297,50.75021758151701L653.250689478981,49.463677896025956L653.2876108733786,53.581595478829264L654.542938282897,51.020192782310524L655.0598378044634,49.675923739186665L656.6105363691627,48.72408541753596L662.776409233562,46.578842742619045L663.9209724598876,44.86678499524072L665.1762998694061,44.08843949362744L667.4285049276598,45.43845161435371L667.7977188716358,43.370399540558864L669.163810464347,41.796973463852446L669.4591816195278,43.989373942825246L670.3822164794678,45.78895466920968L671.0468015786246,44.038647313966315L671.1206443674198,45.858384132552004L671.9698364385647,47.78169418529333L672.0067578329623,57.98346031704327L672.0436792273599,54.934517710819776L672.1544434105526,61.403339574516885L672.8559499041071,60.93892938902106L674.1481987080231,60.91510996719615L675.2927619343487,60.449708450192006L676.0681112166983,60.22624872184909L676.7326963158552,65.12312570122957L677.1019102598311,65.45348535792759L680.3879143612177,61.87536016290037L680.9048138827841,58.885739067954994L681.643241770736,63.29123313777566L681.9755343203145,61.086009190331154L682.2339840810978,58.017282821684766L682.2709054754953,56.633944031733215L683.3416259130257,59.08759249056834L683.7108398570018,55.839401822281935L684.4492677449538,55.54237134132882L686.9968439583882,52.68082244040619L688.8059922838706,55.28198670471757L688.8429136782682,52.47586997874942L690.0243982989915,49.607326205325386L691.4274112861003,51.49952527484325L695.525686064234,50.4120785144051L695.8579786138124,50.8385864212089L696.448720924174,49.011530490742956L696.5594851073669,56.73228690394087L696.8917776569452,57.50995997155869L697.9255767000782,58.61876226942665L699.2178255039942,56.886402121984624L699.6608822367654,55.85850978122979L701.1008166182718,55.324893824817494L702.0238514782118,58.23891294058782L702.651515182971,58.322569775085896L705.1621700020079,56.19601840620165L705.9744406787551,68.43990756563593L707.008239721888,65.24238053402014L709.0019950193583,62.98369000614467L710.6265363728528,61.720893999839014L713.9125404742393,59.80380171130921L713.9494618686368,56.530504122697785L717.4569943364089,59.01387348588433L719.118457084301,63.31171718029341L723.5859458064107,60.747998185767L723.8443955671939,62.53577207271901L728.4595698668941,67.96685533910001L730.2317967979789,65.1347302931432L731.7086525738829,65.92408776939395L732.631687433823,72.02006226208073L733.3331939273774,68.71385588411562L733.5178008993653,74.74516110553023L734.3669929705102,70.89121698377114L735.1792636472574,73.09165832413956L735.9546129296069,68.74114957935906L738.465267748644,64.54393425237663L740.4221016517167,66.89357599425828L742.5635425267777,62.943459588315996L744.1880838802721,59.45323100067151L744.3357694578625,59.07232197627905L745.2588043178024,56.44300487394541L752.0892622813586,54.97660728329782L752.6430831973228,52.38916878751393L752.7538473805155,53.033324261934844L753.5661180572628,52.272955377404415L753.7876464236483,52.33923006604944L755.5598733547331,49.78279123333982L756.1136942706971,52.6881039393548L757.5905500466013,50.8643512746687L757.8120784129868,56.22429082349652L758.3289779345532,54.129896174643925L758.7351132729268,52.353096787226036L759.0674058225052,53.47720888658048L760.7657899647949,59.55373186716835L761.1719253031685,57.29865730813308L761.3934536695541,55.44835463519882L763.5718159390126,55.76293684988832L764.5686935877478,52.809268619250744L765.4178856588926,59.805019927007976L768.0023832667246,56.79362878255572L768.8146539434719,58.78271572166958L770.0330599585927,55.988286861127214L770.6607236633519,58.19740179471114L770.9191734241351,55.33163443557075L772.3960292000392,53.38328136666657L772.8760073272078,51.098205246182175L773.060614299196,50.33384913894065L773.2821426655817,54.45300584204677L773.3929068487744,55.32076994127725L776.198932822992,57.33027746686674L776.2358542173897,57.21521154455085L776.3096970061849,58.519964071808104L777.8603955708841,59.10918113099366L777.9711597540769,57.59508847171639L779.1157229804026,60.5171806959857L780.1126006291378,61.575107219787135L780.2233648123305,61.17738109314807L780.4079717843185,58.875070406126L782.4755698705842,61.018020247114535L783.0293907865481,57.6102932800287L783.3616833361267,55.42611127035828L783.4355261249219,53.71097680986017L785.2446744504043,52.14998309994121L785.7615739719706,51.6770563934235L787.3491939310675,52.11300452392463L789.0106566789595,51.27983801780719L790.5244338492612,52.80816685650365L791.0044119764301,53.54632851039722L791.0413333708276,51.07114726090411L791.7797612587797,50.419251368861076L791.8536040475749,59.12059276365144L792.0382110195628,60.91818574083049L792.4443463579365,64.82998679928977L796.5426211360702,61.59287782203449L797.3179704184198,58.46928166629663L799.8286252374567,62.272252843221835L799.8655466318542,59.48756850145264L799.9763108150471,55.85648958743282L800.0132322094446,57.15744651534348L801.453166590951,54.22775519079913L801.7854591405295,51.82240305189241L802.6715726060718,54.833845940103686L803.8899786211927,57.232987428694784L804.8130134811328,62.191332239138795L806.1421836794464,66.17395873057028L807.5451966665553,64.76421564043366L809.0220524424592,66.44327051301916L809.3174235976401,73.1675247358606L810.4989082183633,72.37787136354389L810.9788863455321,71.36374099592756L813.3418555869786,70.74357956626028L815.7417462228226,68.03564893207546L816.5909382939674,73.39851354687306L819.6923354233659,69.87864660626359L819.8030996065587,74.9103001794123L819.9877065785467,75.36224171503784L822.4614400031859,78.08700808229699L823.1260251023427,73.25074940629423L825.8951296821629,70.1878305361025L827.3350640636694,66.18553024541531L827.3719854580669,65.55870423779979L833.1686443784903,64.69318218591864L834.7193429431894,65.08769182835218L834.7562643375871,62.69294569580166L837.1561549734311,61.82558364171563L837.3776833398167,66.84628121015604L838.1161112277688,63.3628608311747L838.3376395941544,59.18831524814046L839.112988876504,56.612979221173276L839.3345172428897,54.56628470987563L841.5498009067456,54.293262037808205L843.7281631762041,51.67142773975786L844.9096477969274,54.36248343094596L845.1680975577106,58.3291515845607L853.0692759587971,55.30167574585961L853.9923108187371,58.1280257801324L854.472288945906,56.70471397090241L855.4691665946413,55.5091486688733L855.7276163554244,53.782198588674575L856.1337516937981,51.201401342731494L856.318358665786,59.99923559124354L856.6137298209668,68.64212098347551L857.1306293425333,64.4860019130999L858.164428385666,62.75330586676045L860.7120045991005,59.254036405924175L860.8227687822932,56.99859871525469L862.3734673469926,57.07646272519533L863.6657161509086,56.688891681814624L865.0318077436199,53.70101788156126L868.3916546338015,52.71893266998094L868.9823969441632,54.975529731597575L872.9329861447064,52.39960525450048L873.1914359054897,50.16554662091913L873.6344926382608,50.24709393779046L875.5174837525385,51.69166391281694L875.9236190909122,51.79507248747172L875.9605404853097,56.383412835003L879.2834659810939,55.73680931660904L879.3942301642866,56.863960383749635L884.821675140734,58.876879383719434L884.9693607183243,60.41364732705626L885.0062821127219,67.77762090594466L885.6339458174812,63.7877037392191L886.1877667334452,62.64607831851442L886.5569806774212,60.35441927313333L886.9631160157948,60.38406854637623L887.1477229877828,59.104073218367056L887.3323299597707,59.385356040591084L887.4800155373612,56.49569523140744L887.7015439037468,64.73137228944576L888.5876573692893,64.00253991544355L888.9568713132653,64.81051209144141L889.9168275676028,63.529104820250396L889.990670356398,60.00409621860973L891.5782903154949,66.03685418059648L892.4274823866397,62.419068918863566L894.3104735009174,59.876543065858264L895.1965869664598,58.64146546277511L895.8980934600141,57.87232549704114L896.4149929815807,54.6762988471351L897.6333989967014,53.81611748703071L901.8055165636304,53.499462882274095L903.6146648891129,55.83901160810901L905.8668699473665,53.75945562188804L906.6052978353184,54.757359037705605L907.0114331736921,56.0439036206222L907.7498610616441,54.32168711533692L909.9651447255002,52.54601229795442L910.445122852669,53.53734831594923L911.8112144453802,59.120160680739744L912.5496423333323,56.15970613145679L912.9557776717058,58.927477211836504L916.1310175898996,58.37379452417475L916.5002315338755,56.107191958685554L921.7061481439373,53.89915071608319L923.0722397366486,59.65556326848245L923.1460825254436,56.457461370111325L924.2168029629742,57.904398836789824L925.6567373444806,55.098301924017974L927.4289642755654,52.505135822174324L929.2011912066502,53.51611392616234L929.2750339954454,51.40689438804254L929.5704051506262,49.53049743717573L930.6780469825543,48.64069507563186L931.5272390536991,48.637753059683625L932.0441385752655,46.855712247912315L934.1486580559288,49.86662925736056L937.6931119180983,51.19709466976994L939.3545746659904,48.5667984216129L939.5022602435808,46.755507576879786L941.7175439074368,45.90320252396714L943.4159280497266,48.71647916512578L944.5235698816546,55.84794200086317L945.3358405584019,53.12499675251287L945.6312117135826,53.437190761286246L947.9572595606315,50.840308800394325L950.1356218300899,48.81485553378315L951.243263662018,57.279758102018484L952.0555343387653,61.19719381147475L953.273940353886,58.720490160802534L954.3446607914165,57.321098086592926L956.0061235393085,59.27988183698425L957.446057920815,56.700102142093186L960.6212978390087,53.69961321053721L963.3165596300335,53.1263292297143L964.2395944899736,53.9259323565072L964.7195726171424,52.24004106072225L965.0518651667206,50.1767530884981L967.9686553241312,51.616557998124925L970.1470175935896,62.75939455659355L974.3560565549161,59.43925434970578L974.9098774708801,59.23067623924866L976.8297899795555,60.42122153060463L977.8266676282907,59.7365608614427L980.1157940809419,60.83861781472507L981.0388289408819,65.38514733684725L984.3248330422683,65.81612588659966L985.6909246349795,61.82132447811078L986.9831734388957,57.65022280004073L987.5739157492573,59.06027083744177L988.2015794540166,57.27105514479885L989.7153566243182,68.64244840740632L993.702867219259,64.63155411253001L994.2936095296207,61.0344302467771L995.0689588119702,60.62337881176941L995.4012513615487,57.43652487057225L995.9919936719102,54.679017846481614L998.3180415189591,55.316815663609326L998.3549629133569,53.633673458799265L998.8718624349231,52.045866831659175L1002.9332158186593,49.741724286693795L1003.4131939458281,47.48649698101385L1003.8193292842018,45.836220533602614L1007.1422547799857,46.015292638201274L1007.5114687239617,43.50177783877859L1009.985202148601,42.668836374047366L1011.5359007133002,41.34340286761193L1017.3694810281212,43.32527116199742L1018.7724940152301,44.24776376008561L1020.4708781575197,42.80225633736071L1020.5447209463149,40.99987934865359L1022.021576722219,41.05770855004053L1022.0584981166165,42.49066770330086L1022.0954195110141,40.97784430103075L1022.6861618213757,40.11112189324939L1023.1661399485446,38.92088765953209L1023.2399827373398,39.94555924032845L1026.8952007827022,41.50054794675973L1032.4334099423425,43.199210690027996L1034.7963791837888,43.83326597502164L1035.0179075501744,42.70957235992802L1035.23943591656,43.48410395769467L1035.3871214941505,44.04566115569195L1035.424042888548,42.562773389890175L1038.1931474683681,44.43691855056476L1039.670003244272,43.04281578502072L1041.7006799361402,41.99785832706775L1045.7251119254786,44.80094233787975L1046.1312472638524,43.28641042506589L1046.4266184190333,43.27505927584889L1048.198845350118,42.076085283981705L1049.0849588156605,43.63902203372546L1050.5618145915644,44.911619928160135L1050.6725787747573,43.854125908926044L1051.8171420010829,46.12970461314458L1052.186355945059,50.27076242137796L1052.444805705842,47.95633586884019L1053.1093908049988,46.68032794720298L1055.2139102856622,44.799931252058585L1055.9523381736142,43.015358574192085L1056.0631023568071,49.00642314559088L1056.8384516391566,46.990928796118666L1060.0136915573503,45.29875931408698L1063.373538447532,44.8118082817991L1063.4473812363271,52.27103148971382L1064.6288658570504,50.925514105389986L1065.2934509562072,52.30234094567348L1075.7422055707282,50.65757374292363L1076.702161825066,51.5649609948937L1078.3267031785604,50.90757983392767L1080.3573798704283,48.25291867816601L1082.6465063230796,46.23035157937395L1083.1264844502484,45.547850064965544L1086.5232527348276,48.59387412862112L1087.5939731723581,49.294032213994065L1089.0339075538648,47.72607578602832L1091.4337981897086,51.427203431600134L1099.3718979851928,52.194665539580036L1102.2886881426032,51.69648774339963L1103.248644396941,55.3075591102144L1104.0609150736882,55.16888174613962L1104.7624215672427,53.15979961671056L1105.5008494551946,51.64725982006122L1105.6854564271825,51.137266084154035L1106.2761987375443,48.722131741232594L1106.7192554703154,49.55796863591436L1107.3099977806771,48.21756739482806L1108.3068754294122,51.380759688609025L1110.8175302484492,49.13694682395452L1112.6266785739317,47.779215544885716L1113.1066567011003,45.78501805985812L1113.4020278562812,43.95145381089598L1114.80504084339,47.1734653881478L1116.9095603240532,45.35261364967929L1119.5679007206804,44.445454494018506L1120.7863067358014,50.32194754533508L1121.0447564965846,50.02757731672773L1121.377049046163,48.06945367853696L1123.2231187660432,47.38065692011292L1123.3338829492359,45.09922910270966L1124.1092322315853,44.040218265345594L1124.5522889643566,43.43048514744487L1125.253795457911,41.44790786643268L1125.9553019514656,42.48766181422258L1130.9766115895393,41.64202045354567L1133.9672445357448,44.33630449427817L1134.0041659301426,49.317771023206184L1135.2594933396608,49.40456501439076L1135.9609998332155,52.6781924366105L1137.659383975505,50.73035474524827L1140.3177243721323,52.95074707043502L1140.5023313441202,50.56230694506019L1141.4622875984578,52.83267013526947L1143.1606717407476,52.59310151933114L1143.7144926567116,52.69396292427286L1145.3759554046037,51.029956186607144L1146.742046997315,48.997700834544L1148.3296669564118,50.97406521372977L1149.0680948443637,51.0788154551225L1149.2896232107491,48.770619748666576L1149.7696013379182,49.09712677275148L1150.8034003810508,46.95142729769911L1152.3910203401476,45.90867906787648L1153.8678761160518,45.371109262520406L1155.8616314135222,44.79385062053745L1156.341609540691,43.16817680085418L1157.2646444006311,41.79618114502551L1157.5230941614143,42.73595912262137L1157.6707797390047,41.20207124581948L1161.3259977843672,39.9146265727546L1161.43676196756,40.94267358338818L1162.2490326443071,39.633416916280765L1162.913617743464,38.92830487479668L1164.0951023641874,37.966685359711406L1166.3842288168385,38.86992440882311L1166.901128338405,38.66721913740071L1167.5287920431642,39.66096991080031L1167.5657134375617,38.522637124641896L1169.116412002261,39.34002982700756L1172.7716300476234,48.87915496899681L1173.7685076963587,47.02890774843175L1177.1283545865404,45.0272288696798L1179.1590312784083,46.562046325725525L1181.1158651814812,49.608376752572156L1185.1033757764221,47.44784726228801L1185.5095111147957,45.38880410122712L1190.0508426257006,44.52971957001929L1192.2292048951592,44.27338270915981L1193.5952964878704,45.5770894045469L1194.37064577022,43.76193478291991L1195.7367373629313,49.638658514637385L1197.065907561245,47.62490710389954L1197.1028289556425,45.823800907995896L1198.0258638155824,44.12860287946754L1200.3149902682337,42.525680630352916L1200.5365186346194,46.87644728421549L1201.0903395505834,45.65035261691362L1202.9364092704634,43.595001717683935L1203.896365524801,41.96320639403019L1204.5240292295603,41.81219405702246L1205.3732213007052,40.52999465736609L1207.0716054429947,39.274644952559505L1209.4714960788388,42.95056541225241L1209.7299458396221,43.05168366797116L1210.0253169948028,45.48253955839595L1211.7975439258876,43.605868550502365L1212.129836475466,42.629664659710166L1214.3081987449245,41.35253644563123L1214.7881768720933,39.915983523131665L1217.8526526070943,40.08031125040012L1220.1417790597454,39.81673757993837L1220.5848357925167,38.48215820092287L1221.8032418076375,37.70672615408663L1221.8770845964327,38.32001574620866L1223.3539403723366,42.90341296761711L1225.753831008181,44.50090711631065L1228.4860141936033,42.70021280323559L1230.2213197302906,47.504748739434284L1231.550489928604,45.2859399149334L1232.6212103661346,46.61244729430644L1233.691930803665,47.50816054028041L1234.1719089308338,47.32461397880081L1234.2826731140265,50.61471970105203L1236.7194851442682,54.31395342551567L1236.8302493274612,51.76831007025494L1238.417869286558,49.253579572410146L1239.8578036680644,48.50823479282476L1240.2270176120403,50.83832507942435L1240.337781795233,52.83684490279787L1242.294615698306,52.4766975615412L1246.4667332652348,52.12336100084392L1246.54057605403,50.68496809789075L1247.1682397587892,48.93168867510735L1247.4266895195726,47.00349643007942L1247.4636109139701,47.30269138233998L1247.7220606747535,47.108227528369014L1250.1219513105973,46.10749495145619L1250.2696368881877,44.16581013185373L1251.1557503537301,42.482145329712274L1251.5988070865014,43.398208762112596L1252.0787852136702,41.79983073123909L1252.3372349744536,42.07055547473763L1255.3278679206592,40.78449105526701L1256.54627393578,39.194078579011496L1256.6939595133704,41.10270194300427L1257.6908371621055,39.4303053161496L1257.7646799509007,38.36305817689976L1260.2384133755402,37.4609086620671L1260.4599417419256,40.82627429079393L1261.0876054466848,40.65675428196282L1263.6721030545168,39.48181571629495L1264.041316998493,41.24238315580769L1264.6689807032521,40.013391977327L1264.9274304640355,38.98933947034018L1265.0381946472282,42.027569669696526L1265.2966444080114,42.38494746156052L1265.5550941687945,41.081587768643715L1265.9612295071681,42.727666660884175L1270.982539145242,41.885238500262744L1272.3486307379533,42.679207529686884L1274.3793074298212,42.42071708463525L1274.6377571906044,40.48757893947173L1277.0376478264484,39.40326281369174L1277.9606826863885,40.15984740626166L1278.2929752359669,38.901819798282986L1278.7360319687382,47.034097090651834L1279.4375384622924,47.08425478302714L1280.0652021670517,45.2477790792586L1280.619023083016,43.58843579300399L1282.0589574645223,41.762297267177836L1282.5020141972934,46.22111119450839L1283.4250490572335,44.66131572586964L1284.5326908891614,43.21611016890947L1284.7911406499447,42.36506629563318L1286.9325815250056,40.89710972050162L1287.338716863379,39.76812773624411L1288.6309656672952,38.54902662354887L1289.3324721608496,37.842411830578335L1289.5909219216328,38.79709593746936L1291.2893060639224,38.99651832129623L1292.1754195294648,39.24799497506039L1293.2092185725978,37.847099206123204L1293.3199827557905,36.58610234842089L1294.6122315597065,35.65128080461626L1296.5321440683817,36.39419269173555" style="fill: none;" fill="none"></path></g></g></g></g><g opacity="0.2"><g><g><g><path stroke="rgb(0, 119, 187)" stroke-width="2px" d="M34.226591008804014,119.45003783209216L34.337355191996814,156.28632616546446L35.29731144633444,115.46318093810687L36.14650351747926,265.14976138702656L38.50947275892572,99.89167670839245L38.84176530850412,178.7385925001042L41.13089176115539,253.28451362977123L41.315498733143386,196.63648189301404L42.09084801549301,322.8005327122558L42.755433114649826,80.0612034992501L44.04768191856586,240.68983023620223L44.121524707361054,217.69625831842447L44.41689586254187,112.05621177252321L48.219799485494754,310.3198063036191L49.659733867001194,88.26757231138949L50.1766333885676,278.5317107143967L52.46575984121886,67.18709009066667L53.46263748995409,29.71049199907337L54.0533798003157,255.3179372939232L54.31182956109891,119.52910382685285L56.084056492183755,292.72566133688184L56.56403461935256,30.165365785116038L57.08093414091898,188.6592552347234L57.450148084894984,85.86391060429203L59.037768043991825,226.05206938824077L59.333139199172635,73.64543614274173L61.14228752465508,356.5047802045688L61.6591870462215,94.12801396839313L62.286850750980705,290.66371210922847L62.50837911736632,149.43986737127753L63.54217816049914,186.1613403115566L67.56661014983764,78.78012506459896L68.52656640417527,216.06604877687695L69.7818938136937,179.0421652446446L70.1141863632721,143.30489027656168L72.03409887194735,213.73857409563115L73.43711185905619,325.5710780673316L76.24313783327386,26.391166306719903L79.23377077947953,67.14819924862212L81.26444747134758,46.03552465838352L81.3752116545404,76.8273686565848L81.8921111761068,45.925526255701016L82.0397967536972,129.09950961925685L83.81202368478205,272.3786410169044L84.07047344556524,150.03562904751652L85.69501479905969,193.41251214105964L86.80265663098771,67.9554462831536L88.90717611165097,66.56350443451933L89.9778965491814,30.270250056101364L90.568638859543,50.329688269235156L91.15938116990463,59.207864331831985L93.22697925617028,31.50585101685779L95.10997037044793,135.6831766596869L95.77455546960475,147.9005434445526L96.10684801918315,30.06543056733543L96.62374754074955,89.95296759297482L96.69759032954477,78.4795270344932L96.80835451273757,85.49220666433318L98.432895866232,90.30430084696101L100.75894371328087,53.01185503591886L101.09123626285928,40.92579519189378L101.57121439002808,91.78232452628653L101.68197857322089,37.369157611098494L101.97734972840169,88.40226975811764L103.45420550430573,93.05995612201461L104.08186920906493,28.967313578260267L104.56184733623375,162.9339644233023L106.5556026337042,38.671605456601824L107.84785143762025,67.77479758725728L109.36162860792187,50.237294765557785L110.0631351014763,29.050181330702866L113.42298199165798,69.6746380845054L113.86603872442919,115.13211932299788L114.30909545720041,37.84101302166312L115.04752334515241,47.05708856004986L115.26905171153803,30.998275922089256L116.00747959949005,62.22355785138781L116.19208657147804,142.9955794036225L117.8535493193701,29.87763727428437L118.2966060521413,64.37999140499991L119.58885485605734,78.6397588224389L120.88110365997336,77.08868130704901L120.91802505437097,40.145666426715295L122.6164091966606,27.221233792052516L123.24407290141981,153.8632776402095L123.31791569021502,43.23272172778747L123.50252266220303,114.84140289145223L124.42555752214305,84.28092341630473L124.46247891654065,30.11447043509797L124.90553564931187,25.766628147670893L125.09014262129986,122.53841871345902L126.16086305883029,73.49215415932963L126.71468397479431,83.86254188181083L126.93621234117991,27.637766447430582L131.80983640166323,26.792623994164213L133.84051309353129,75.63148062876552L134.3574126150977,106.84105203793428L135.6496614190137,89.81601847560918L139.60025061955702,102.85367679748256L142.2216696217867,29.980352413878446L143.84621097528114,40.58046996964162L144.84308862401636,40.356089504908624L144.95385280720916,114.96068861012196L147.09529368227,133.57766651943658L149.38442013492127,27.2480755549306L150.6766689388373,44.70266316412098L151.93199634835574,46.808535238966044L152.44889586992215,151.09766483048918L152.52273865871734,74.09919895052997L152.55966005311495,129.3187602698358L154.7011009281758,88.93923047533342L158.5040045511287,208.2198548227812L160.01778172143034,133.91291452511499L161.16234494775597,51.197864563047695L165.59291227546808,93.47463989827683L166.25749737462488,110.93651737369537L166.3313401634201,84.67572844050193L168.17740988330013,141.0046337371568L170.2450079695658,27.257773916364094L170.7988288855298,78.47743383920846L172.71874139420504,28.06737827176828L173.49409067655466,93.49631800590997L173.75254043733787,28.41459611893679L175.34016039643473,73.84918427209145L177.7031296378812,67.20358803520564L178.736928681014,38.475649032097394L179.77072772414684,145.22311556551782L181.6906402328221,122.69188888635257L183.97976668547335,65.24337503168591L184.38590202384694,110.07742908938383L187.59806333643823,42.40120402789837L187.81959170282383,66.41403246271379L188.74262656276386,71.10389922793578L188.92723353475188,81.7764878926848L190.07179676107748,72.48430539151518L191.58557393137912,63.02858375480291L192.06555205854792,66.53240529732007L192.1393948473431,139.41222717038835L195.1300277935488,105.99082846866919L198.5267960781281,32.27896312071322L199.1544597828873,70.34877077505168L199.92980906523692,88.44409734654353L203.5481057162018,58.80723946538226L204.87727591451545,29.359558235039035L205.02496149210586,29.259274701639253L205.32033264728668,40.042192751448226L208.05251583270913,102.82012954623973L209.45552881981797,40.68280295252557L209.9724283413844,76.97248090540384L211.3754413284932,140.54453356604208L211.8184980612644,34.54813868155298L213.36919662596364,138.78070288953742L215.87985144500053,89.99948671215711L216.21214399457892,46.467739770547695L216.32290817777172,54.65681000745953L219.1289341519894,28.860950203982274L219.2027769407846,55.52896507984371L221.19653223825503,51.42658130446256L222.2303312813879,65.09730202604061L226.10707769313595,31.48695118025317L229.43000318892007,85.92641922625643L230.02074549928167,61.23603767453046L230.5376450208481,40.03540720001465L232.78985007910174,66.58230027167369L236.29738254687382,38.759928227828595L236.37122533566904,68.3771277367123L237.55270995639225,30.13684682475433L238.9557229435011,28.545623870776982L241.79867031211634,84.74294840264187L242.3524912280804,27.33859139393003L243.9770325815748,38.176990674278294L247.1153511053709,29.306881688087035L247.74301481013012,37.187417746366876L247.85377899332292,64.92127057557914L249.10910640284135,33.4645419966768L249.18294919163657,65.50190941112156L249.44139895241977,35.97148341181269L250.7705691507334,26.23085032874301L251.54591843308302,28.849672041375708L252.4320318986254,54.80008905961951L253.83504488573425,118.21391687408443L254.57347277368626,78.82796481172115L258.67174755182,25.201788974644224L259.040961495796,40.66030688096216L260.887031215676,38.66342499190673L261.5885377092304,33.52670065223716L262.0685158363993,71.43239387248663L262.2900442027849,37.6291562367625L262.7700223299537,173.45905215344607L264.87454181061696,76.46607456636208L265.7237338817618,93.53268809937428L265.90834085374973,37.767596838307746L266.7944543192922,70.66920958916927L268.0867031232082,37.289667364612136L268.9728165887506,76.71887742053869L272.5172704509203,40.30966530585951L273.40338391646276,73.39257716187771L275.3971392139332,40.26072943754724L276.4678596514636,123.2497287312979L278.4616149489341,39.13033877779882L279.9015493304405,87.41625262093436L280.0123135136333,31.41976918616654L280.4553702464045,112.30686035237285L281.59993347273013,68.64953201108654L285.43975849008064,79.0646213385478L285.73512964526145,49.93678608418601L286.2889505612255,96.14935388689517L289.8703258177928,36.93509609599589L290.8302820721304,207.80946969046326L291.6425527488776,37.71680466234746L295.0393210334569,68.73267379382668L295.3346921886377,96.94606891360608L296.8484693589393,92.16201166214196L299.100674417193,107.74774235633878L300.24523764351864,67.75185002601698L302.6082068849651,62.321514603435986L303.2727919841219,86.80499337582086L303.6420059280979,34.74661750542256L303.6789273224955,57.82918488928399L304.3804338160499,36.003493782290455L305.22962588719474,129.8971028635478L305.93113238074915,52.01707924662056L307.7402807062316,27.87565776138103L308.10949465020764,104.69336764442384L308.2202588334004,115.39532047141611L308.77407974936443,68.4580112456752L309.99248576448525,30.275758725395622L313.61078241545016,55.114342382623676L314.90303121936614,39.73446167968217L316.490651178463,31.75270444216524L316.71217954484865,68.65227561563164L319.1859129694879,82.24621874305114L320.21971201262073,30.07686390372495L320.5889259565967,27.57931875638132L321.88117476051275,120.80734621300311L324.354908185152,34.26308279151465L325.5363928058752,73.73563338025066L327.7147550753337,76.2289277564128L329.00700387924974,36.76541686592523L329.4131392176233,67.34458982956177L329.8561959503945,108.66106883014116L330.48385965515376,76.0975681968027L334.69289861648025,31.440357775749284L335.98514742039634,29.75472147956491L336.2066757867819,27.487857017619948L338.7542520002164,29.871105118336754L340.3787933537108,109.93317689951067L341.44951379124126,63.41359054507866L341.63412076322925,104.59857627246906L341.9664133128076,85.51163310132884L345.28933880859176,40.85389855606175L345.40010299178454,60.25883655423832L346.43390203491737,74.0062416006267L346.80311597889335,28.425103364983453L348.9445568539542,71.27058393415275L350.23680565787026,38.62292793613028L351.4552116729911,98.10820499285187L351.4921330673887,30.06440708068203L353.70741673124473,29.128372409453373L358.2856696365473,30.156187420933858L358.3964338197401,81.62930060721524L360.4640319060057,71.09194919586477L361.4239881603433,35.708075915278826L361.5347523435361,157.99433389895037L362.31010162588575,46.43953611010662L362.568551386669,53.22730970656318L363.4177434578138,56.64813783063534L364.70999226172984,88.6906552813494L364.93152062811544,52.16154583218585L366.9991187143811,36.90336800974026L367.29448986956186,85.51726227792255L373.31267715637085,28.3792643691902L373.57112691715406,78.88591726729297L374.5680045658892,62.24372301463733L376.63560265215494,77.03641415475838L377.81708727287815,30.01862586236114L380.1800565143246,34.87981934100878L380.2908206975174,44.57236753539496L381.0292485854695,31.03364729067403L381.28769834625257,56.20976941766377L382.2476546005903,38.040942885481655L384.8321522084223,39.87240209339516L385.16444475800074,107.24497269648647L385.42289451878395,195.0624254514702L385.90287264595275,28.869190922327142L386.7151433227,27.83791916721401L388.11815630980885,33.83516302172493L389.22579814173685,57.3829277878528L390.07499021288163,26.78108005518474L390.7395753120385,126.85051325333846L393.32407291987056,37.86953775977206L396.09317749969057,214.06953666364464L397.57003327559465,31.342845910238335L398.45614674113705,38.50291091973884L400.85603737698113,50.19145349993524L403.73590613999403,82.14529305431559L403.920513111982,32.17929698087534L404.0312772951748,28.322472415420556L404.99123354951246,60.79567841493951L406.61577490300687,116.21973566916606L408.09263067891095,45.778757444209894L408.7202943836701,154.58767508093257L411.34171338589977,60.0587878339052L412.08014127385184,28.643802653397557L412.33859103463504,28.83499986496363L416.5107086015639,109.69830322040288L416.62147278475675,80.11261884651952L417.3968220671063,111.19349176137703L419.57518433656475,36.1654737514716L419.9443982805408,28.564574881714243L420.09208385813116,113.4933124935617L421.1628042956616,108.96613388425361L422.3812103107825,58.77538096711754L424.3011228194577,74.72155312112339L424.92878652421695,96.48510373119072L425.4456860457833,44.128595277971904L426.03642835614494,28.433659383248955L426.6640920609042,28.535748875356536L428.14094783680815,47.88978492037531L429.83933197909784,50.053844842405084L429.87625337349544,23.789007617118624L430.6885240502427,72.62922945085278L430.9469738110258,58.45395580900736L431.9807728541587,63.17057271854413L432.34998679813464,36.51678884682361L432.9407291084963,53.09200373924214L433.27302165807475,28.2582453263494L433.7899211796411,114.89210179806426L435.1929341667499,26.237798482491712L435.30369834994275,46.79947242972863L436.55902575946124,31.787144768052386L436.70671133705156,84.45569531786856L437.55590340819646,30.96349223293775L437.77743177458206,80.0600809655012L437.8512745633773,61.570143337040875L439.3281303392813,25.570797182820776L439.54965870566684,112.87706787797515L440.0296368328357,33.96096603927799L440.2142438048237,59.088287249623036L442.5772130462701,84.18844974638445L443.2787195398246,26.448834827284625L443.611012089403,37.74493321207448L445.27247483729496,114.77209633716731L446.12166690843986,84.19303562690568L446.1955096972351,24.92814165922155L446.2324310916327,37.02546006278222L448.41079336109107,27.148056147118815L454.2812950703096,28.874158134166045L456.2381289733825,90.85675913305131L456.9765568613345,27.87554220643626L458.12112008766013,32.63231528466248L458.45341263723856,36.16776999330208L459.0810763419978,106.80674872719585L459.708740046757,53.20861105937129L460.8533032730826,153.7363851046061L462.73629438736026,35.59585060373271L463.5854864585051,38.18039294200844L464.10238598007146,105.94659733739273L466.8345691654939,48.3712656451405L471.04360812682046,28.947050193307746L474.58806198899015,100.52459755328984L474.7726689609782,60.63273026039996L476.1018391592918,33.62379321837716L477.24640238561744,220.38860929317988L480.8277776421847,146.01348497497762L481.78773389652235,125.86315898036602L481.93541947411273,52.924687401443286L482.5261617844743,81.81914087357309L484.07686034917356,65.96316678246862L486.43982959062004,28.665206730733157L486.5505937738128,33.36853234544748L487.14133608417444,98.86318817666258L490.68578994634413,31.38040456884854L492.64262384941696,81.82172600276543L496.1501563171891,68.00807330655783L498.8084967138164,114.85012563899515L500.506880856106,69.23853867541304L501.54067989923885,82.22732385880128L503.71904216869723,94.90233444681355L504.3097844790589,40.135151752136444L505.4543477053845,30.55644828930768L508.11268810201176,28.510161709021347L508.8141945955662,41.673469525449704L510.4018145546631,29.101388679071746L511.14024244261503,30.01009295508459L513.281683317676,39.38346353503575L513.9093470224351,34.590601822174904L514.9062246711703,67.81602263918559L515.68157395352,28.898345434884934L516.1246306862912,63.97731956524335L516.6784516022552,29.001463366000685L516.8261371798455,27.981410345236807L517.4538008846048,107.6286745412791L518.7829710829185,26.473294507516144L520.2598268588225,24.530563316350605L521.4782328739433,124.1395480277704L525.5395862576794,37.08007545662848L527.4964201607523,29.086089204388223L527.6441057383427,41.290123424808385L528.3825336262947,32.452300490177336L530.1916819517771,28.701401840995462L531.2624023893076,53.32316439035768L532.8131009540068,28.14745124533309L534.6960920682844,51.46767367455253L535.5452841394293,30.90028532895013L537.7236464088877,44.62737829223067L537.8344105920805,51.066561568614816L540.2343012279246,62.43497387671345L541.305021665455,42.85189555033391L542.5603490749735,42.28298389089764L543.8525978788895,51.780989248545346L544.7017899500343,45.34621341314947L545.2925322603959,38.08842193609775L547.2493661634688,95.632697824255L547.9877940514208,80.82926420123549L548.4677721785896,84.637922164153L548.6893005449753,32.96274960150002L549.5015712217224,38.046285650890916L552.5291255623257,62.998385120780135L557.7350421723874,37.18063467111067L560.1718542026291,41.42647825960107L560.2087755970266,27.47055183925276L560.4303039634123,79.81480073822719L560.7625965129906,95.73400319352328L561.39026021775,66.37078685003746L561.8333169505211,53.688418507267016L562.0548453169067,79.64040851719608L564.2332075863652,27.440920249851658L566.0792773062452,62.92404449786686L567.8145828429324,63.69289592583124L569.1437530412461,168.12277763049067L570.0298665067885,30.518985376223156L570.1406306899813,67.87062730292985L572.9097352698014,163.63698750081844L573.131263636187,38.195607401268326L574.238905468115,48.88461786810164L574.5711980176934,33.80078212409506L574.7188835952838,61.27957877770833L574.9404119616694,55.627808303396556L578.3371802462487,74.89376465526875L578.3741016406464,60.93915308511311L578.6694727958271,28.96750672009649L578.8171583734176,60.9723908141825L579.4448220781768,63.01438617905674L581.8077913196232,164.7921275535527L582.5092978131777,26.781147737366652L583.764625222696,32.499574018070305L584.6507386882384,70.67656218522455L587.4936860568537,46.84020472235685L589.8197339039026,59.43092829558741L591.5181180461922,69.45857509961627L593.1426593996866,78.4550145291441L593.8441658932411,79.3048105451136L596.3178993178803,31.23813827323996L598.4593401929412,40.81259013949473L599.308532264086,96.52987962149238L602.2991652102917,66.50372951239045L603.3329642534245,37.93996437162851L603.9606279581837,134.41766512687707L604.034470746979,28.53188108627758L605.2159553677022,38.42729919243344L606.3605185940278,31.14480124280397L608.5388808634863,29.633060281388346L613.8186402623433,28.81104697570406L614.7047537278856,86.41266452901095L615.037046277464,114.8097606460127L615.2585746438497,84.84993577362144L616.9569587861394,34.40486540714023L617.0677229693321,62.12808222908166L617.7692294628865,95.22920306821341L618.4707359564409,69.48765367606751L622.6428535233698,77.98043037109868L623.1597530449362,27.28567878473376L626.9257352734916,50.12738545367415L627.7010845558411,72.58063199345008L630.3594249524684,74.87684576057397L630.7286388964444,59.41113373355353L632.6116300107221,39.93034546964988L635.2699704073493,36.47916085524655L636.0822410840965,55.57968255778612L636.7099047888559,53.03216361110876L638.4082889311454,41.63811796628402L639.6636163406639,70.01253890155805L642.0635069765079,56.049865723221856L644.0572622739783,27.291884085266286L645.017218528316,55.417908524024355L645.201825500304,69.47490631487783L647.8232445025336,29.890840252113325L649.1524147008473,52.058536749701105L650.9615630263297,28.192435134535266L653.250689478981,37.88482072660636L653.2876108733786,90.64285372405897L654.542938282897,27.967568513641947L655.0598378044634,37.57750235107148L656.6105363691627,40.15754052267972L662.776409233562,27.271658668366996L663.9209724598876,29.45826526883556L665.1762998694061,37.08332997910781L667.4285049276598,57.588560700890476L667.7977188716358,24.75793087640508L669.163810464347,27.63613877349469L669.4591816195278,63.720978253580355L670.3822164794678,61.9851812066695L671.0468015786246,28.2858811167763L671.1206443674198,62.23601549982318L671.9698364385647,65.09148465996545L672.0067578329623,149.79935550279245L672.0436792273599,27.494034254808746L672.1544434105526,119.62273634779038L672.8559499041071,56.759237719558946L674.1481987080231,60.700735170771665L675.2927619343487,56.26109479715479L676.0681112166983,58.21511116676287L676.7326963158552,109.19501851565403L677.1019102598311,68.42672226820956L680.3879143612177,29.672233407655035L680.9048138827841,31.979149213446725L681.643241770736,102.94067976616189L681.9755343203145,41.23899366333096L682.2339840810978,30.398745503866852L682.2709054754953,44.18389492216947L683.3416259130257,81.1704286200846L683.7108398570018,26.605685807704276L684.4492677449538,52.86909701275082L686.9968439583882,26.92688233210237L688.8059922838706,78.69246508351955L688.8429136782682,27.220819445036383L690.0243982989915,23.79043224450879L691.4274112861003,68.52931690050413L695.525686064234,40.62505767046184L695.8579786138124,54.67715758244327L696.448720924174,32.568027116549096L696.5594851073669,126.21909462272271L696.8917776569452,64.50901758011872L697.9255767000782,68.59798295023825L699.2178255039942,41.29516079500656L699.6608822367654,46.6074787144363L701.1008166182718,50.52235021710634L702.0238514782118,84.4650849825211L702.651515182971,59.07548128556849L705.1621700020079,37.0570560862439L705.9744406787551,178.63491000054418L707.008239721888,36.4646372494777L709.0019950193583,42.655475255265614L710.6265363728528,50.35572994308847L713.9125404742393,42.549971114541016L713.9494618686368,27.070825825194568L717.4569943364089,81.36419775456356L719.118457084301,101.99231042997478L723.5859458064107,37.67452723502957L723.8443955671939,78.62573705528723L728.4595698668941,116.84660473652895L730.2317967979789,39.64560487953222L731.7086525738829,73.02830505565056L732.631687433823,126.88383269626166L733.3331939273774,38.95799848242928L733.5178008993653,129.02690809826186L734.3669929705102,36.20571988793946L735.1792636472574,92.89563038745521L735.9546129296069,29.58657087633469L738.465267748644,26.768996309534863L740.4221016517167,88.04035167119333L742.5635425267777,27.392411934834932L744.1880838802721,28.04117371187119L744.3357694578625,55.64414075674677L745.2588043178024,32.779150952943056L752.0892622813586,41.779028967469294L752.6430831973228,29.102222325458783L752.7538473805155,58.83072353172315L753.5661180572628,45.429635416630546L753.7876464236483,52.93570226385435L755.5598733547331,26.774841738953757L756.1136942706971,78.83591829348912L757.5905500466013,34.45057729249426L757.8120784129868,104.46374676294694L758.3289779345532,35.28034433497056L758.7351132729268,36.36190230046453L759.0674058225052,63.5942177807709L760.7657899647949,114.24243869245906L761.1719253031685,37.00298627681532L761.3934536695541,38.795630578790814L763.5718159390126,58.594176782094046L764.5686935877478,26.226254543512198L765.4178856588926,122.7667816968232L768.0023832667246,29.691108482485795L768.8146539434719,76.68449817369373L770.0330599585927,30.83842711624609L770.6607236633519,78.07943619696661L770.9191734241351,29.539728203307128L772.3960292000392,35.84810374652933L772.8760073272078,30.532520161821974L773.060614299196,43.45464417376736L773.2821426655817,91.52541617000186L773.3929068487744,63.13064683435168L776.198932822992,75.41584519717196L776.2358542173897,56.17961824370761L776.3096970061849,70.2627368171232L777.8603955708841,64.41213466366418L777.9711597540769,43.96825453822111L779.1157229804026,86.81601071440933L780.1126006291378,71.09644593400004L780.2233648123305,57.597845953396536L780.4079717843185,38.15427422292744L782.4755698705842,80.30456881601137L783.0293907865481,26.940750576256047L783.3616833361267,35.76847318332438L783.4355261249219,38.274766665377236L785.2446744504043,38.101039710670854L785.7615739719706,47.420716034763835L787.3491939310675,56.036537698434834L789.0106566789595,43.781339462750125L790.5244338492612,66.56312640477152L791.0044119764301,60.18978339543935L791.0413333708276,28.794516015466595L791.7797612587797,44.55218834047358L791.8536040475749,137.43266531676446L792.0382110195628,77.09652253544206L792.4443463579365,100.03619632542342L796.5426211360702,32.45889702673704L797.3179704184198,30.356916264656057L799.8286252374567,96.49899343554843L799.8655466318542,34.42540942553001L799.9763108150471,23.176779361254262L800.0132322094446,68.86605886653952L801.453166590951,27.86053326989951L801.7854591405295,30.174233801732353L802.6715726060718,81.93683193400543L803.8899786211927,78.82526082601427L804.8130134811328,106.8164355331349L806.1421836794464,102.01759715345361L807.5451966665553,52.07652782920456L809.0220524424592,81.55476436628837L809.3174235976401,133.68581274143335L810.4989082183633,65.27099101269373L810.9788863455321,62.23656768738054L813.3418555869786,65.16212669925457L815.7417462228226,43.664273224411836L816.5909382939674,121.664295080052L819.6923354233659,38.19984414077796L819.8030996065587,120.1951823377508L819.9877065785467,79.42971553566753L822.4614400031859,102.60990538762981L823.1260251023427,29.72442132226927L825.8951296821629,42.62156070437701L827.3350640636694,30.16482762923054L827.3719854580669,59.91727016926003L833.1686443784903,56.90348371898866L834.7193429431894,68.63827861025383L834.7562643375871,41.14023050284698L837.1561549734311,54.01932515494118L837.3776833398167,112.03255932611995L838.1161112277688,32.01207742034274L838.3376395941544,21.61740500083204L839.112988876504,33.434954978468696L839.3345172428897,36.146034108196574L841.5498009067456,51.83605798920154L843.7281631762041,28.074919057304978L844.9096477969274,78.58198465163896L845.1680975577106,94.02916496709307L853.0692759587971,28.054393197549373L853.9923108187371,83.56517608858789L854.472288945906,43.894907687832635L855.4691665946413,44.74906095061127L855.7276163554244,38.23964786688597L856.1337516937981,27.974226129243878L856.318358665786,139.17974382785175L856.6137298209668,146.42808951356346L857.1306293425333,27.0809302797196L858.164428385666,47.15904144970488L860.7120045991005,27.76061125839831L860.8227687822932,36.69965949922872L862.3734673469926,57.77723881466121L863.6657161509086,53.20075229138839L865.0318077436199,26.810153679281214L868.3916546338015,43.880165765757454L868.9823969441632,75.28490328614785L872.9329861447064,29.216284960626286L873.1914359054897,30.059018918687315L873.6344926382608,50.981019789632356L875.5174837525385,64.69279368805515L875.9236190909122,52.72574965936457L875.9605404853097,97.67847596278453L879.2834659810939,49.91737765106345L879.3942301642866,67.00831998801488L884.821675140734,76.99315038344791L884.9693607183243,74.24455881708774L885.0062821127219,134.0533831159404L885.6339458174812,27.878449238688916L886.1877667334452,52.3714495321722L886.5569806774212,39.729487864703586L886.9631160157948,60.650912005562276L887.1477229877828,47.58411526628413L887.3323299597707,61.916901440607795L887.4800155373612,30.48874794875465L887.7015439037468,138.85246581179052L888.5876573692893,57.44304854942341L888.9568713132653,72.0822616754225L889.9168275676028,51.9964393795311L889.990670356398,28.27901880384369L891.5782903154949,120.33167583847715L892.4274823866397,29.859001563267743L894.3104735009174,36.99381038881051L895.1965869664598,47.52576703502657L895.8980934600141,50.95006580543567L896.4149929815807,25.912058997980438L897.6333989967014,46.07448524609114L901.8055165636304,50.64957143946445L903.6146648891129,76.89495014062328L905.8668699473665,35.04345174589969L906.6052978353184,63.738489780063176L907.0114331736921,67.62280486687149L907.7498610616441,38.82173856776978L909.9651447255002,36.56493894151166L910.445122852669,62.45937247790275L911.8112144453802,109.36547196385445L912.5496423333323,29.51561518790983L912.9557776717058,83.83741693525458L916.1310175898996,53.390650335218616L916.5002315338755,35.70776886928282L921.7061481439373,34.02677953266195L923.0722397366486,111.46327624007556L923.1460825254436,27.674544284771336L924.2168029629742,70.92683603689625L925.6567373444806,29.843429709071632L927.4289642755654,29.166640905581254L929.2011912066502,62.614916862054365L929.2750339954454,32.42391854496436L929.5704051506262,32.642924879374505L930.6780469825543,40.632473821736724L931.5272390536991,48.611274916149476L932.0441385752655,30.817344941970852L934.1486580559288,76.96488234239474L937.6931119180983,63.17128338145426L939.3545746659904,24.894132188199762L939.5022602435808,30.45388997428151L941.7175439074368,38.232457047753314L943.4159280497266,74.03596893555343L944.5235698816546,120.0311075225L945.3358405584019,28.61848951735991L945.6312117135826,56.246936840246796L947.9572595606315,27.468371152367013L950.1356218300899,30.585776134282604L951.243263662018,133.46388121613643L952.0555343387653,96.45411519658144L953.273940353886,36.43015730475237L954.3446607914165,44.72656941870644L956.0061235393085,76.90893559050664L957.446057920815,33.48208488807321L960.6212978390087,26.695212826533716L963.3165596300335,47.96677340230802L964.2395944899736,61.12236049764291L964.7195726171424,37.0670193986578L965.0518651667206,31.607161338480836L967.9686553241312,64.5748021847665L970.1470175935896,163.0449235828111L974.3560565549161,29.55799248771567L974.9098774708801,57.3534732451349L976.8297899795555,71.13612915280855L977.8266676282907,53.57461483898461L980.1157940809419,70.75713039426682L981.0388289408819,106.3039130359466L984.3248330422683,69.69493283437151L985.6909246349795,25.868111801711027L986.9831734388957,20.110307697410008L987.5739157492573,71.75070317405115L988.2015794540166,41.16811391101265L989.7153566243182,170.98498777087354L993.702867219259,28.533505458643653L994.2936095296207,28.660315455000845L995.0689588119702,56.92391589669975L995.4012513615487,28.75483939979782L995.9919936719102,29.86145462966608L998.3180415189591,61.05699601775849L998.3549629133569,38.48539361550879L998.8718624349231,37.75560718739855L1002.9332158186593,29.00444138200511L1003.4131939458281,27.189451229894345L1003.8193292842018,30.983732506901315L1007.1422547799857,47.62694157958955L1007.5114687239617,20.880144643974557L1009.985202148601,35.17236319146622L1011.5359007133002,29.41450130969283L1017.3694810281212,61.16208581146695L1018.7724940152301,52.55019714287941L1020.4708781575197,29.792689532836473L1020.5447209463149,24.77848645028932L1022.021576722219,41.57817136252301L1022.0584981166165,55.38730008264401L1022.0954195110141,27.362433680599647L1022.6861618213757,32.31062022321707L1023.1661399485446,28.20877955607623L1023.2399827373398,49.1676034674961L1026.8952007827022,55.49544630464085L1032.4334099423425,58.487175379442604L1034.7963791837888,49.539763539964454L1035.0179075501744,32.59632982408567L1035.23943591656,50.45488833759438L1035.3871214941505,49.09967593766777L1035.424042888548,29.2167834976736L1038.1931474683681,61.30422499663635L1039.670003244272,30.495890895124486L1041.7006799361402,32.593241205491246L1045.7251119254786,70.02869843518738L1046.1312472638524,29.655623209741204L1046.4266184190333,43.17289893289582L1048.198845350118,31.285319357177112L1049.0849588156605,57.705452781419176L1050.5618145915644,56.365000978072125L1050.6725787747573,34.33667973581925L1051.8171420010829,66.60991295111162L1052.186355945059,87.54028269547808L1052.444805705842,27.126496896000265L1053.1093908049988,35.19625665246852L1055.2139102856622,27.876360995758983L1055.9523381736142,26.954204473393546L1056.0631023568071,102.92600428817995L1056.8384516391566,28.851479650868416L1060.0136915573503,30.069233975802298L1063.373538447532,40.42924899120818L1063.4473812363271,119.40404036094614L1064.6288658570504,38.81585764647502L1065.2934509562072,64.69378250822514L1075.7422055707282,35.85466891817545L1076.702161825066,59.73144626262435L1078.3267031785604,44.991149385233136L1080.3573798704283,24.36096827631113L1082.6465063230796,28.02724769024515L1083.1264844502484,39.405336435290025L1086.5232527348276,76.00809070152103L1087.5939731723581,55.59545498235064L1089.0339075538648,33.61446793433671L1091.4337981897086,84.7373522417466L1099.3718979851928,59.101824511399265L1102.2886881426032,47.21288757777614L1103.248644396941,87.8072014115471L1104.0609150736882,53.92078546946639L1104.7624215672427,35.07806045184919L1105.5008494551946,38.03440165021695L1105.6854564271825,46.547322460989825L1106.2761987375443,26.98592265493967L1106.7192554703154,57.08050068805024L1107.3099977806771,36.153956225050905L1108.3068754294122,79.84949033263801L1110.8175302484492,28.94263104206393L1112.6266785739317,35.5596340332664L1113.1066567011003,27.837240694609886L1113.4020278562812,27.449375570236754L1114.80504084339,76.17156958341393L1116.9095603240532,28.964948003462972L1119.5679007206804,36.281022093071456L1120.7863067358014,103.21038500718402L1121.0447564965846,47.37824525926165L1121.377049046163,30.446340934820135L1123.2231187660432,41.18148609429642L1123.3338829492359,24.566378746080147L1124.1092322315853,34.509120729069195L1124.5522889643566,37.94288708633798L1125.253795457911,23.604712337323345L1125.9553019514656,51.845447344331916L1130.9766115895393,34.031248207453494L1133.9672445357448,68.5848608608706L1134.0041659301426,94.15096978355812L1135.2594933396608,50.18571093505196L1135.9609998332155,82.14083923658832L1137.659383975505,33.19981552298803L1140.3177243721323,72.93427799711598L1140.5023313441202,29.066345816687015L1141.4622875984578,73.2659388471527L1143.1606717407476,50.43698397588648L1143.7144926567116,53.60171556874775L1145.3759554046037,36.05389554761602L1146.742046997315,30.70740266597576L1148.3296669564118,68.76134462640147L1149.0680948443637,52.021567627657156L1149.2896232107491,27.996858390563556L1149.7696013379182,52.0356899895152L1150.8034003810508,27.640132022227917L1152.3910203401476,36.52394499947281L1153.8678761160518,40.53298101431597L1155.8616314135222,39.59852284269053L1156.341609540691,28.537112423704436L1157.2646444006311,29.448220242567846L1157.5230941614143,51.193960920983706L1157.6707797390047,27.397080354602426L1161.3259977843672,28.327624515171006L1161.43676196756,50.195096679090305L1162.2490326443071,27.85010691231416L1162.913617743464,32.582296501439494L1164.0951023641874,29.312109723944026L1166.3842288168385,46.99907585082828L1166.901128338405,36.842871694599246L1167.5287920431642,48.60472687139696L1167.5657134375617,28.277642049216382L1169.116412002261,46.696564148298336L1172.7716300476234,134.73128124690027L1173.7685076963587,30.376682763346217L1177.1283545865404,27.012118960912126L1179.1590312784083,60.3754034301368L1181.1158651814812,77.02535059419203L1185.1033757764221,28.00308184973026L1185.5095111147957,26.857415651679723L1190.0508426257006,36.79795878914884L1192.2292048951592,41.96635096142432L1193.5952964878704,57.31044966303098L1194.37064577022,27.42554318827668L1195.7367373629313,102.52917210009505L1197.065907561245,29.501144407258572L1197.1028289556425,29.61384514486305L1198.0258638155824,28.871820622712434L1200.3149902682337,28.09938038832145L1200.5365186346194,86.0333471689787L1201.0903395505834,34.61550061119642L1202.9364092704634,25.09684362461667L1203.896365524801,27.277048481146664L1204.5240292295603,40.45308302395316L1205.3732213007052,28.990200060458438L1207.0716054429947,27.97649760930045L1209.4714960788388,76.0338495494884L1209.7299458396221,43.96174796943981L1210.0253169948028,67.3602425722192L1211.7975439258876,26.715829479460186L1212.129836475466,33.84382964258039L1214.3081987449245,29.85838251892093L1214.7881768720933,26.987007220635295L1217.8526526070943,41.55926079581638L1220.1417790597454,37.444574545782764L1220.5848357925167,26.47094378978317L1221.8032418076375,30.727837732560502L1221.8770845964327,43.83962207530689L1223.3539403723366,84.15398796029326L1225.753831008181,58.878354454552344L1228.4860141936033,26.493963985560203L1230.2213197302906,90.74557216522291L1231.550489928604,25.3166604944249L1232.6212103661346,58.55101370866395L1233.691930803665,55.56957975404604L1234.1719089308338,45.67269492548447L1234.2826731140265,80.22567120131299L1236.7194851442682,87.6070569456883L1236.8302493274612,28.857519872908444L1238.417869286558,26.621005091806893L1239.8578036680644,41.80013177655612L1240.2270176120403,71.80913765882102L1240.337781795233,70.82352331315941L1242.294615698306,49.23537149023108L1246.4667332652348,48.943331954568144L1246.54057605403,37.7394319713124L1247.1682397587892,33.15217387005684L1247.4266895195726,29.64976622482781L1247.4636109139701,49.99544595268517L1247.7220606747535,45.35805284263049L1250.1219513105973,37.1009017592404L1250.2696368881877,26.690646755431583L1251.1557503537301,27.329162110439267L1251.5988070865014,51.64277965371551L1252.0787852136702,27.41442845337766L1252.3372349744536,44.50707816622464L1255.3278679206592,29.209911280031445L1256.54627393578,24.88036629271145L1256.6939595133704,58.2803122189397L1257.6908371621055,24.378735674457268L1257.7646799509007,28.757833923651475L1260.2384133755402,29.341563028573223L1260.4599417419256,71.11456494933522L1261.0876054466848,39.13107420248281L1263.6721030545168,28.907368625284157L1264.041316998493,57.08749011142208L1264.6689807032521,28.952471371000964L1264.9274304640355,29.772866907458862L1265.0381946472282,69.37164146390376L1265.2966444080114,45.60134758833618L1265.5550941687945,29.351350532392665L1265.9612295071681,57.542376691047906L1270.982539145242,34.30338505466996L1272.3486307379533,49.82492879450408L1274.3793074298212,40.094303079171006L1274.6377571906044,23.089335632999983L1277.0376478264484,29.64441768167132L1277.9606826863885,46.969108739391245L1278.2929752359669,27.579571326474817L1278.7360319687382,120.22459272197194L1279.4375384622924,47.535674014404975L1280.0652021670517,28.719497745341684L1280.619023083016,28.654346216712586L1282.0589574645223,25.327050534741886L1282.5020141972934,86.35043654048377L1283.4250490572335,30.623156508120946L1284.5326908891614,30.209260156267852L1284.7911406499447,34.70567143614658L1286.9325815250056,27.685500544317588L1287.338716863379,29.60728987792648L1288.6309656672952,27.57711660929157L1289.3324721608496,31.482878693843574L1289.5909219216328,47.38925289948866L1291.2893060639224,40.79131977573804L1292.1754195294648,41.51128485893788L1293.2092185725978,25.239037285688568L1293.3199827557905,25.23713062910036L1294.6122315597065,27.237886910374435L1296.5321440683817,43.08039967580918" style="fill: none;" fill="none"></path></g></g></g></g></g></g><g transform="translate(50, 377)" clip-path="url(#clip_1)"><clipPath id="clip_1"><rect width="1407" height="23"></rect></clipPath><g><g><line x1="32.675892444104775" y1="0" x2="32.675892444104775" y2="5" style="visibility: inherit;" fill="rgb(0, 0, 0)" stroke="rgb(204, 204, 204)" stroke-width="1px"></line><line x1="217.28286443210936" y1="0" x2="217.28286443210936" y2="5" style="visibility: inherit;" fill="rgb(0, 0, 0)" stroke="rgb(204, 204, 204)" stroke-width="1px"></line><line x1="401.88983642011397" y1="0" x2="401.88983642011397" y2="5" style="visibility: inherit;" fill="rgb(0, 0, 0)" stroke="rgb(204, 204, 204)" stroke-width="1px"></line><line x1="586.4968084081186" y1="0" x2="586.4968084081186" y2="5" style="visibility: inherit;" fill="rgb(0, 0, 0)" stroke="rgb(204, 204, 204)" stroke-width="1px"></line><line x1="771.103780396123" y1="0" x2="771.103780396123" y2="5" style="visibility: inherit;" fill="rgb(0, 0, 0)" stroke="rgb(204, 204, 204)" stroke-width="1px"></line><line x1="955.7107523841277" y1="0" x2="955.7107523841277" y2="5" style="visibility: inherit;" fill="rgb(0, 0, 0)" stroke="rgb(204, 204, 204)" stroke-width="1px"></line><line x1="1140.3177243721323" y1="0" x2="1140.3177243721323" y2="5" style="visibility: inherit;" fill="rgb(0, 0, 0)" stroke="rgb(204, 204, 204)" stroke-width="1px"></line><line x1="1324.9246963601367" y1="0" x2="1324.9246963601367" y2="5" style="visibility: inherit;" fill="rgb(0, 0, 0)" stroke="rgb(204, 204, 204)" stroke-width="1px"></line></g><g transform="translate(0, 8)"><text x="32.675892444104775" y="0" dx="0em" dy="0.95em" style="text-anchor: middle; visibility: inherit; font-family: Roboto, sans-serif; font-size: 12px; font-weight: 200;" fill="rgb(33, 33, 33)" stroke="none" stroke-width="1px">0</text><text x="217.28286443210936" y="0" dx="0em" dy="0.95em" style="text-anchor: middle; visibility: inherit; font-family: Roboto, sans-serif; font-size: 12px; font-weight: 200;" fill="rgb(33, 33, 33)" stroke="none" stroke-width="1px">5k</text><text x="401.88983642011397" y="0" dx="0em" dy="0.95em" style="text-anchor: middle; visibility: inherit; font-family: Roboto, sans-serif; font-size: 12px; font-weight: 200;" fill="rgb(33, 33, 33)" stroke="none" stroke-width="1px">10k</text><text x="586.4968084081186" y="0" dx="0em" dy="0.95em" style="text-anchor: middle; visibility: inherit; font-family: Roboto, sans-serif; font-size: 12px; font-weight: 200;" fill="rgb(33, 33, 33)" stroke="none" stroke-width="1px">15k</text><text x="771.103780396123" y="0" dx="0em" dy="0.95em" style="text-anchor: middle; visibility: inherit; font-family: Roboto, sans-serif; font-size: 12px; font-weight: 200;" fill="rgb(33, 33, 33)" stroke="none" stroke-width="1px">20k</text><text x="955.7107523841277" y="0" dx="0em" dy="0.95em" style="text-anchor: middle; visibility: inherit; font-family: Roboto, sans-serif; font-size: 12px; font-weight: 200;" fill="rgb(33, 33, 33)" stroke="none" stroke-width="1px">25k</text><text x="1140.3177243721323" y="0" dx="0em" dy="0.95em" style="text-anchor: middle; visibility: inherit; font-family: Roboto, sans-serif; font-size: 12px; font-weight: 200;" fill="rgb(33, 33, 33)" stroke="none" stroke-width="1px">30k</text><text x="1324.9246963601367" y="0" dx="0em" dy="0.95em" style="text-anchor: middle; visibility: inherit; font-family: Roboto, sans-serif; font-size: 12px; font-weight: 200;" fill="rgb(33, 33, 33)" stroke="none" stroke-width="1px">35k</text></g><line x1="0" y1="0" x2="1407" y2="0" fill="rgb(0, 0, 0)" stroke="rgb(204, 204, 204)" stroke-width="1px"></line></g></g></g></g></svg>