<svg viewBox="0 0 1457 400" xmlns="http://www.w3.org/2000/svg"><g><g><g><g><g><line x1="50" y1="361.492669551295" x2="45" y2="361.492669551295" style="visibility: inherit;" fill="rgb(0, 0, 0)" stroke="rgb(204, 204, 204)" stroke-width="1px"></line><line x1="50" y1="328.14515498970684" x2="45" y2="328.14515498970684" style="visibility: inherit;" fill="rgb(0, 0, 0)" stroke="rgb(204, 204, 204)" stroke-width="1px"></line><line x1="50" y1="294.79764042811865" x2="45" y2="294.79764042811865" style="visibility: inherit;" fill="rgb(0, 0, 0)" stroke="rgb(204, 204, 204)" stroke-width="1px"></line><line x1="50" y1="261.45012586653047" x2="45" y2="261.45012586653047" style="visibility: inherit;" fill="rgb(0, 0, 0)" stroke="rgb(204, 204, 204)" stroke-width="1px"></line><line x1="50" y1="228.10261130494234" x2="45" y2="228.10261130494234" style="visibility: inherit;" fill="rgb(0, 0, 0)" stroke="rgb(204, 204, 204)" stroke-width="1px"></line><line x1="50" y1="194.75509674335413" x2="45" y2="194.75509674335413" style="visibility: inherit;" fill="rgb(0, 0, 0)" stroke="rgb(204, 204, 204)" stroke-width="1px"></line><line x1="50" y1="161.40758218176597" x2="45" y2="161.40758218176597" style="visibility: inherit;" fill="rgb(0, 0, 0)" stroke="rgb(204, 204, 204)" stroke-width="1px"></line><line x1="50" y1="128.06006762017782" x2="45" y2="128.06006762017782" style="visibility: inherit;" fill="rgb(0, 0, 0)" stroke="rgb(204, 204, 204)" stroke-width="1px"></line><line x1="50" y1="94.71255305858968" x2="45" y2="94.71255305858968" style="visibility: inherit;" fill="rgb(0, 0, 0)" stroke="rgb(204, 204, 204)" stroke-width="1px"></line><line x1="50" y1="61.365038497001514" x2="45" y2="61.365038497001514" style="visibility: inherit;" fill="rgb(0, 0, 0)" stroke="rgb(204, 204, 204)" stroke-width="1px"></line><line x1="50" y1="28.01752393541332" x2="45" y2="28.01752393541332" style="visibility: inherit;" fill="rgb(0, 0, 0)" stroke="rgb(204, 204, 204)" stroke-width="1px"></line></g><g transform="translate(40, 0)"><text x="0" y="361.492669551295" dx="0em" dy="0.3em" style="text-anchor: end; visibility: inherit; font-family: Roboto, sans-serif; font-size: 12px; font-weight: 200;" fill="rgb(33, 33, 33)" stroke="none" stroke-width="1px">-140</text><text x="0" y="328.14515498970684" dx="0em" dy="0.3em" style="text-anchor: end; visibility: inherit; font-family: Roboto, sans-serif; font-size: 12px; font-weight: 200;" fill="rgb(33, 33, 33)" stroke="none" stroke-width="1px">-120</text><text x="0" y="294.79764042811865" dx="0em" dy="0.3em" style="text-anchor: end; visibility: inherit; font-family: Roboto, sans-serif; font-size: 12px; font-weight: 200;" fill="rgb(33, 33, 33)" stroke="none" stroke-width="1px">-100</text><text x="0" y="261.45012586653047" dx="0em" dy="0.3em" style="text-anchor: end; visibility: inherit; font-family: Roboto, sans-serif; font-size: 12px; font-weight: 200;" fill="rgb(33, 33, 33)" stroke="none" stroke-width="1px">-80</text><text x="0" y="228.10261130494234" dx="0em" dy="0.3em" style="text-anchor: end; visibility: inherit; font-family: Roboto, sans-serif; font-size: 12px; font-weight: 200;" fill="rgb(33, 33, 33)" stroke="none" stroke-width="1px">-60</text><text x="0" y="194.75509674335413" dx="0em" dy="0.3em" style="text-anchor: end; visibility: inherit; font-family: Roboto, sans-serif; font-size: 12px; font-weight: 200;" fill="rgb(33, 33, 33)" stroke="none" stroke-width="1px">-40</text><text x="0" y="161.40758218176597" dx="0em" dy="0.3em" style="text-anchor: end; visibility: inherit; font-family: Roboto, sans-serif; font-size: 12px; font-weight: 200;" fill="rgb(33, 33, 33)" stroke="none" stroke-width="1px">-20</text><text x="0" y="128.06006762017782" dx="0em" dy="0.3em" style="text-anchor: end; visibility: inherit; font-family: Roboto, sans-serif; font-size: 12px; font-weight: 200;" fill="rgb(33, 33, 33)" stroke="none" stroke-width="1px">0</text><text x="0" y="94.71255305858968" dx="0em" dy="0.3em" style="text-anchor: end; visibility: inherit; font-family: Roboto, sans-serif; font-size: 12px; font-weight: 200;" fill="rgb(33, 33, 33)" stroke="none" stroke-width="1px">20</text><text x="0" y="61.365038497001514" dx="0em" dy="0.3em" style="text-anchor: end; visibility: inherit; font-family: Roboto, sans-serif; font-size: 12px; font-weight: 200;" fill="rgb(33, 33, 33)" stroke="none" stroke-width="1px">40</text><text x="0" y="28.01752393541332" dx="0em" dy="0.3em" style="text-anchor: end; visibility: inherit; font-family: Roboto, sans-serif; font-size: 12px; font-weight: 200;" fill="rgb(33, 33, 33)" stroke="none" stroke-width="1px">60</text></g><line x1="50" y1="0" x2="50" y2="377" fill="rgb(0, 0, 0)" stroke="rgb(204, 204, 204)" stroke-width="1px"></line></g></g><g transform="translate(50, 0)" clip-path="url(#clip_0)"><clipPath id="clip_0"><rect width="1407" height="377"></rect></clipPath><g><g><g><line x1="32.257804152691456" y1="0" x2="32.257804152691456" y2="377" fill="rgb(0, 0, 0)" stroke="rgb(66, 66, 66)" stroke-width="1px" opacity="0.25"></line><line x1="146.646474728857" y1="0" x2="146.646474728857" y2="377" fill="rgb(0, 0, 0)" stroke="rgb(66, 66, 66)" stroke-width="1px" opacity="0.25"></line><line x1="261.0351453050225" y1="0" x2="261.0351453050225" y2="377" fill="rgb(0, 0, 0)" stroke="rgb(66, 66, 66)" stroke-width="1px" opacity="0.25"></line><line x1="375.4238158811881" y1="0" x2="375.4238158811881" y2="377" fill="rgb(0, 0, 0)" stroke="rgb(66, 66, 66)" stroke-width="1px" opacity="0.25"></line><line x1="489.81248645735366" y1="0" x2="489.81248645735366" y2="377" fill="rgb(0, 0, 0)" stroke="rgb(66, 66, 66)" stroke-width="1px" opacity="0.25"></line><line x1="604.2011570335192" y1="0" x2="604.2011570335192" y2="377" fill="rgb(0, 0, 0)" stroke="rgb(66, 66, 66)" stroke-width="1px" opacity="0.25"></line><line x1="718.5898276096848" y1="0" x2="718.5898276096848" y2="377" fill="rgb(0, 0, 0)" stroke="rgb(66, 66, 66)" stroke-width="1px" opacity="0.25"></line><line x1="832.9784981858503" y1="0" x2="832.9784981858503" y2="377" fill="rgb(0, 0, 0)" stroke="rgb(66, 66, 66)" stroke-width="1px" opacity="0.25"></line><line x1="947.3671687620157" y1="0" x2="947.3671687620157" y2="377" fill="rgb(0, 0, 0)" stroke="rgb(66, 66, 66)" stroke-width="1px" opacity="0.25"></line><line x1="1061.7558393381812" y1="0" x2="1061.7558393381812" y2="377" fill="rgb(0, 0, 0)" stroke="rgb(66, 66, 66)" stroke-width="1px" opacity="0.25"></line><line x1="1176.1445099143468" y1="0" x2="1176.1445099143468" y2="377" fill="rgb(0, 0, 0)" stroke="rgb(66, 66, 66)" stroke-width="1px" opacity="0.25"></line><line x1="1290.5331804905124" y1="0" x2="1290.5331804905124" y2="377" fill="rgb(0, 0, 0)" stroke="rgb(66, 66, 66)" stroke-width="1px" opacity="0.25"></line><line x1="1404.921851066678" y1="0" x2="1404.921851066678" y2="377" fill="rgb(0, 0, 0)" stroke="rgb(66, 66, 66)" stroke-width="1px" opacity="0.25"></line></g><g><line x1="0" y1="361.492669551295" x2="1407" y2="361.492669551295" fill="rgb(0, 0, 0)" stroke="rgb(66, 66, 66)" stroke-width="1px" opacity="0.25"></line><line x1="0" y1="328.14515498970684" x2="1407" y2="328.14515498970684" fill="rgb(0, 0, 0)" stroke="rgb(66, 66, 66)" stroke-width="1px" opacity="0.25"></line><line x1="0" y1="294.79764042811865" x2="1407" y2="294.79764042811865" fill="rgb(0, 0, 0)" stroke="rgb(66, 66, 66)" stroke-width="1px" opacity="0.25"></line><line x1="0" y1="261.45012586653047" x2="1407" y2="261.45012586653047" fill="rgb(0, 0, 0)" stroke="rgb(66, 66, 66)" stroke-width="1px" opacity="0.25"></line><line x1="0" y1="228.10261130494234" x2="1407" y2="228.10261130494234" fill="rgb(0, 0, 0)" stroke="rgb(66, 66, 66)" stroke-width="1px" opacity="0.25"></line><line x1="0" y1="194.75509674335413" x2="1407" y2="194.75509674335413" fill="rgb(0, 0, 0)" stroke="rgb(66, 66, 66)" stroke-width="1px" opacity="0.25"></line><line x1="0" y1="161.40758218176597" x2="1407" y2="161.40758218176597" fill="rgb(0, 0, 0)" stroke="rgb(66, 66, 66)" stroke-width="1px" opacity="0.25"></line><line x1="0" y1="128.06006762017782" x2="1407" y2="128.06006762017782" fill="rgb(0, 0, 0)" stroke="rgb(66, 66, 66)" stroke-width="1px" opacity="0.25"></line><line x1="0" y1="94.71255305858968" x2="1407" y2="94.71255305858968" fill="rgb(0, 0, 0)" stroke="rgb(66, 66, 66)" stroke-width="1px" opacity="0.25"></line><line x1="0" y1="61.365038497001514" x2="1407" y2="61.365038497001514" fill="rgb(0, 0, 0)" stroke="rgb(66, 66, 66)" stroke-width="1px" opacity="0.25"></line><line x1="0" y1="28.01752393541332" x2="1407" y2="28.01752393541332" fill="rgb(0, 0, 0)" stroke="rgb(66, 66, 66)" stroke-width="1px" opacity="0.25"></line></g></g></g><g><g><line x1="0" y1="128.06006762017782" x2="1407" y2="128.06006762017782" fill="rgb(0, 0, 0)" stroke="rgb(153, 153, 153)" stroke-width="1.5px"></line></g></g><g><g><line x1="32.257804152691456" y1="0" x2="32.257804152691456" y2="377" fill="rgb(0, 0, 0)" stroke="rgb(153, 153, 153)" stroke-width="1.5px"></line></g></g><g><g><g><g><g><path stroke="rgb(0, 119, 187)" stroke-width="2px" d="M33.218668985531245,203.80957714849748L33.287302187876946,239.77972384672287L33.88212327487301,257.97193918999653L34.40831115952337,259.62861649588194L36.078385749935386,263.4616038417518L37.496805265079836,250.37443237232873L37.611193935656004,250.53443247701014L38.0916263520759,219.94754969442877L38.50342556615009,213.7371424755297L39.30414626018325,227.53202994449308L39.34990172841372,227.55197437549037L39.53292360133559,229.5882309920992L43.101850123311955,234.2901377108981L44.520269638456405,237.21043820451342L45.50401220541142,226.32294789588641L45.664156344218064,224.0911904709123L46.76228758174924,235.69902945368042L47.05969812524728,221.41510488702596L48.5925063109679,202.78187631234394L48.77552818388976,193.80695081599322L50.216825433149445,196.82772951820616L50.60574691310841,186.3170512434761L50.74301331779981,175.50486565577668L51.38358987302634,166.72105329811575L54.4720839785828,168.5501448160218L55.45582654553783,158.13812035903004L56.64546871952995,148.93902208253218L57.514822615908805,158.2128840175915L59.25353040866652,159.67070900712207L61.106626872000405,155.56607886971614L62.364902248338225,163.49352948888293L62.433535450683934,152.60381357580275L62.75382372829719,156.2418348600653L62.84533466475812,151.02207109162856L63.94346590228931,142.53889896436138L64.10361004109595,143.23388517197554L65.1102303421662,141.18137448546403L65.79656236562319,147.19858354232647L67.10059321019148,142.70036271785924L67.76404749953323,140.2045712308473L68.4961349912207,138.85204393750348L70.94405254155065,129.87034009614075L71.92779510850566,121.81111077863522L71.99642831085137,129.6689774822322L74.44434586118132,125.70617591056778L74.94765601171643,122.55533564989693L75.19931108698401,130.69905548540763L76.11442045159332,130.48898381437726L76.80075247505033,123.20768414122274L78.83687081130607,120.00074881913561L80.20953485822005,118.78189309305634L82.29140866270627,125.55134126855825L82.56594147208907,121.52545309965937L83.29802896377652,119.83580589751055L84.00723872134876,113.52457070760049L85.03673675653424,119.96964381812828L86.91271095398335,122.46611740274192L87.98796445739931,115.64833005467759L88.37688593735827,139.47670853554507L88.42264140558873,131.20864573194135L88.53703007616491,128.96028048411034L89.10897342904573,132.37610166011538L89.13185116316096,130.33074062334157L89.40638397254376,126.17408127650214L89.52077264311993,119.13200354294835L90.1842269324617,134.3766895376939L93.68452025209236,126.91539512947615L94.94279562843016,122.04810162646842L100.13604127258809,115.81063865303707L101.76036039476963,110.72118045866493L101.82899359711533,104.34906551702343L104.5743216909433,106.2189944879065L106.1528853448944,110.06087440249303L106.51892909073811,109.76679692527502L106.54180682485335,104.0340087711617L107.86871540353687,105.10006704709724L111.87231887370265,105.26562672304705L115.02944618160484,106.28924558705702L115.0752016498353,107.93061207697151L116.21908835559695,103.57638321530975L117.8434074777785,99.51869768057864L119.51348206819053,98.26811203748595L119.67362620699716,93.17478585478682L122.1215437573271,92.52936855198534L122.76212031255363,87.49274225015724L124.59233904177228,83.76647510481114L126.01075855691673,94.98074747591518L128.25277650020956,91.24408986869157L128.9619862577818,90.51300269500656L129.07637492835798,86.10092812588732L131.02098232815277,85.3973555617224L131.06673779638322,81.97107375589498L132.91983425971713,80.59710767048202L135.02458579831858,93.34962046884257L135.41350727827754,89.20224678699445L135.89393969469745,85.96870914084519L138.95955606613867,82.41078059853972L139.0510670025996,79.53171128436064L139.23408887552145,77.83008637007823L141.79639509642757,75.88383235577113L142.11668337404083,74.6018745108648L142.9860372704197,77.09094040740854L144.22143491264228,78.31901904012396L145.98302043951523,74.99677519841286L147.79036143461863,78.0566075010072L147.8361169028491,75.37320400895034L149.0715145450717,74.82329202460272L149.71209110029824,75.95014813596111L154.5392929986124,76.90285594541024L154.85958127622567,78.50868510789229L156.25512305725488,79.29693017630608L159.20635075811998,78.61460690469245L162.18045619310027,80.55839513368082L163.18707649417053,82.6947694049039L165.13168389396535,86.63061672901362L166.4128370044184,83.18042756377557L166.57298114322504,78.91968512164107L167.39657957137342,80.23556043145271L167.8770119877933,77.99064638422571L169.29543150293776,75.60112231363861L169.75298618524243,80.30727488267219L172.29241467203332,85.7030035812297L172.52119201318564,82.99961394313979L174.09975566713672,89.53117665630087L174.39716621063477,86.3473987819135L174.53443261532615,80.84609032789147L176.13587400339247,77.91116608076798L176.66206188804284,76.12570448681203L178.12623687141775,73.59842996893018L181.42063058401132,71.49423405130109L182.6560282262339,70.51692994961722L183.31948251557566,67.93308806878385L185.44711178829232,68.11978416017664L185.51574499063804,66.62784495272432L185.79027780002085,66.91239959910281L189.06179377849918,64.87120683009013L191.62409999940527,63.39021488000804L192.21892108640134,67.5347902181154L194.8269827755379,65.40302695374643L195.01000464845978,67.08383705666361L195.94799174718432,71.33233125240547L198.0527432857858,69.6241967368369L199.51691826916073,67.67345432883592L200.6150495066919,70.40905944554505L201.14123739134226,68.34793913154022L202.69692331117813,73.20514671287503L202.92570065233045,70.33646342542555L202.99433385467614,73.14333205290326L203.33749986640464,79.69200437780015L204.09246509220733,77.07623287791648L208.25621270117975,73.49309111946273L210.42959744212692,76.56484628221953L210.65837478327924,79.33888731771924L211.4590954773124,77.12696018208544L215.07377746751922,78.33800197045952L216.7896075261617,74.60551141259523L219.3976692152983,77.65233525616104L220.33565631402283,77.1730175843993L223.58429455838595,84.98160389837045L223.6986832289621,85.17149038049592L223.9045828359992,83.01525617496975L226.03221210871587,81.52255992766499L226.6727886639424,79.14379551013725L226.90156600509476,81.25230769173452L229.02919527781143,81.8171381823806L229.80703823772933,78.51732622860895L231.17970228464333,75.6384663843944L235.36632762773098,78.5841244164999L235.96114871472705,77.19883559237616L236.02978191707274,80.63761053655071L236.51021433349266,78.92823338651058L236.67035847229926,82.00063516694959L237.9972670509828,79.21415311501914L239.41568656612722,76.59339245123302L244.10562205975003,75.91772097581277L245.38677517020307,78.50638701040573L246.11886266189057,80.3602921022206L248.10922552991582,77.61561336007296L248.86419075571854,76.14855851627954L250.67153175082194,80.25282400789027L250.8316758896286,78.85990883505376L251.1290864331266,79.20983168940933L253.18808250349758,78.82405406762939L253.71427038814795,81.7620491693542L254.12606960222215,82.343619421317L257.44334104893096,80.51654514124274L258.90751603230586,82.44605433619664L262.36205388370604,83.93147425421671L262.95687497070213,79.7917100927299L267.3493999208269,77.42267378749037L267.5095440596335,75.08339507034468L270.16336121700056,76.45862141594995L271.9935799462192,75.01209120101846L272.9773225131742,71.19795460123463L274.921929912969,68.33808676398866L275.63113967054124,66.24668971467034L275.997183416385,65.10152599148205L277.30121426095326,75.26561279091568L278.353590030254,77.54653321390892L278.37646776436924,76.36603870339141L278.87977791490437,83.44296070598912L280.27531969593355,79.13606326567405L280.48121930297066,82.74162272118184L281.67086147696284,81.80282184706651L281.7394946793085,88.34021085230714L282.6088485756873,83.92819841785352L283.13503646033774,80.3027158633661L283.27230286502913,76.93796341427591L283.31805833325956,75.83265680257567L284.3704341025603,77.88870667445926L286.2464083000094,82.27261988415333L286.6810852481988,79.80436280185909L286.88698485523594,80.30952046143861L288.4426707750718,77.34472039303982L288.48842624330223,78.11449042404757L289.8610902902163,79.90653313599786L293.4986500145383,79.03957029414492L294.7111699226457,78.66787356838643L295.16872460495034,79.9055934664067L295.8779343625226,78.26135734457372L296.0838339695597,76.39040954378264L296.4727554495186,77.20063752157073L296.8616769294776,75.95678672366331L298.7376511269267,77.59918683040128L299.5841272891903,80.62042335724797L301.27707961371755,77.82633683038665L303.88514130285415,80.01616691326049L306.08140377791653,78.80924018353205L306.1957924484927,75.97939558676386L307.01939087664107,75.7667953195215L307.7286006342133,75.3107869140915L309.94774084339093,73.17874254473578L310.542561930387,74.91127220992512L311.00011661269167,77.45961029804411L311.96098144553144,79.03223491157614L313.42515642890635,75.60119323418085L316.05609585215814,75.70842399810803L317.2686157602655,73.9107437806422L322.14157312681016,82.26323996393707L322.7821496820367,78.64438315138005L326.8543863545482,75.40992640097862L328.2728058696926,73.88556381349753L330.0572691306808,76.00642562178025L330.4461906106398,82.19487302504594L331.0638894317511,83.55772297786821L331.54432184817097,80.99911878846416L331.81885465755374,90.37213659923712L332.1620206692823,85.25967970170306L335.1361261042626,83.75926743814802L338.86519676504554,81.47301002674232L338.9567077015065,78.62815673482203L341.19872564479937,76.60732421758584L342.15959047763914,78.9968604712668L343.326354917516,80.9619778895746L343.8525428021664,78.42764980814232L345.20232911496515,78.58587352600236L345.2709623173108,74.98991448226985L347.4214693241428,73.96831713946399L348.1993122840607,75.51990232272385L349.0000329780938,72.20299102000673L349.89226460858794,74.3765363493154L354.3763004951736,72.07870684548911L357.6020610054215,67.1668351752075L359.1119914570269,69.13150882934139L359.2721355958335,71.62390353340963L359.8669566828296,72.98574036496379L360.27875589690376,76.52848550778924L361.6285422097025,73.13499467948958L362.77242891546416,69.75983171325305L367.0048097267823,69.29124719264617L367.14207613147374,68.29149872566526L367.8284081549307,70.29403946330018L368.03430776196785,73.59788528771315L368.2630851031201,78.59039584417793L370.3678366417215,76.65569624151493L370.5737362487587,81.84163570277293L371.05416866517857,80.93309031064663L372.51834364855347,76.00735658462374L372.9530205967429,76.43007820988579L377.4828119515591,78.02984483186209L378.53518772085977,75.03373153397827L379.5418080219301,75.4866554257519L381.5092931558401,74.01387911948311L382.83620173452357,71.19266025317283L386.2449841176933,74.41953536914713L386.2907395859238,71.34336718368851L387.0228270776113,74.80787242749102L387.7320368351835,80.10757111554118L392.3533391264606,83.7475491715054L392.90240474522614,86.78089565609054L393.1083043522633,85.06448613811665L394.3665797286011,86.73382703757942L398.1414058576146,86.34489880046682L400.47493473736836,90.35522778454455L400.95536715378825,89.73320992970157L403.99810579111426,92.50602121629589L405.645302647411,92.88405117598897L406.14861279794616,88.6368189489392L406.5375342779051,86.41788824825144L407.5899100472058,90.07651396619552L409.85480572461387,85.83922365578529L411.68502445383257,88.59241118595695L413.4237322465903,83.83634933891462L414.24733067473863,84.3235426507602L416.7867591615295,87.35838057596871L416.8096368956448,89.50509290287239L417.907768133176,89.39564933133084L418.8686329660158,85.97515916335448L422.68921456325967,82.77835038946893L423.3984243208319,78.48166269594411L424.17626728074987,82.93336770004014L426.647062565195,80.70245555269987L427.40202779099775,76.0579587264883L427.8138270050719,76.47476273763036L427.8595824733024,79.52658001564106L428.408648092068,77.9111414072401L428.4315258261832,77.21924622127433L428.5001590285289,75.79479783397215L428.9348359767184,72.01544079254782L429.7355566707515,72.2226446766544L430.44476642832376,74.77827620512939L431.33699805881776,81.21295039392037L431.5657753999701,82.23896741047035L433.6018937362259,79.97927338754874L433.9221820138391,74.87651750792902L434.58563630318093,72.65652961763328L434.7686581761028,70.95341040311162L435.4321124654445,69.2572391642719L437.6970081428526,72.56848339483234L442.98176472347143,69.67930376081355L443.62234127869795,68.55313837468064L443.8282408857351,69.07770776290458L444.46881744096163,72.24580744596416L445.2695381349948,68.31242024962934L445.5440709443776,70.50796929924098L447.0082459277525,70.17452333043703L450.09674003330895,67.801386024697L451.33213767553156,73.78501735385144L454.37487631285757,73.12526462487841L454.39775404697275,76.26284429304866L457.60063682310545,73.45168002511222L460.3688426510486,77.81992961299599L460.5289867898553,75.69420558305332L463.38870355425934,73.85174365476945L465.9738875092807,71.05861917569958L467.0491410126967,69.24309387680668L467.5524511632318,72.69862055732577L468.0328835796517,70.25094203555848L469.5885694994875,68.08305182808505L470.80108940759493,72.94566076475131L472.12799798627844,72.76620861657746L473.1346182873487,69.79999321216053L478.94556275261795,67.8850639423975L479.0828291573093,70.4789129475675L481.57650217586973,68.5752250113231L481.89679045348294,67.6710490695154L483.6583759803559,71.19081657937777L483.79564238504736,74.66084717531628L485.7631275189574,73.58298442591871L486.2893154036077,75.46289006485121L487.89075679167405,84.44572550936462L488.3940669422092,81.77289419758308L489.14903216801184,79.47095465744995L489.69809778677745,76.25713073420711L490.6132071513868,78.45628397160253L491.02500636546097,76.28668859194983L491.1622727701524,75.2775634961293L491.230905972498,79.4922434790013L492.9696137652558,77.34300368378985L492.99249149937106,77.41803323445852L494.067745002787,75.64196488168976L494.7769547603592,77.05414333432519L495.39465358147055,73.60007054283902L495.4632867838162,74.42911344903392L495.57767545439236,76.55094516934648L497.20199457657395,76.50666768079279L497.4536496518415,72.71990581382809L498.5746586234879,75.84299654567772L499.8786894680562,77.43681205734526L500.90818750324166,74.5348329551285L501.84617460196625,73.25054792428419L502.1435851454643,80.14585057287125L502.1664628795795,79.43968623777543L502.66977303011464,75.42453303292022L503.0358167759584,84.77431019018778L505.5752452627492,90.63483047597511L506.05567767916915,89.00858803819092L507.6342413331202,90.62700171588992L507.7028745354659,86.94951506287993L507.72575226958116,86.34720659080386L508.8238835071123,81.67404346961646L509.3729491258779,81.1851449499334L512.3928100290887,80.43050739775047L514.5204393018054,78.4488171633628L515.9846142851803,79.70167891030465L517.4716670026705,76.64229742276811L517.9978548873208,76.33269513529602L519.9195845530004,75.9348903871605L519.9882177553461,73.30173503681465L520.1026064259223,72.84350081177327L521.6354146116429,70.45487857071929L522.0472138257171,70.48246405886336L523.7630438843596,68.61983253779859L524.6552755148537,66.6772771085033L528.2699575050605,67.02719896097138L529.2537000720155,66.5114626536809L530.8780191941971,64.37445737038448L531.4728402811932,62.81739786635213L531.953272697613,66.99065116737678L532.0905391023044,65.18680123175176L535.7052210925112,64.05611863272577L541.172999546052,61.49715617888113L541.47041008955,60.56047952261656L542.248253049468,60.224099120675575L543.1176069458468,59.01779652479593L543.7581835010733,61.17327975623436L546.3662451902098,65.59995051859151L547.166965884243,64.61862779595513L548.0134420465067,64.19537325689676L550.0953158509928,64.58073327721976L553.0694212859731,70.24924397038075L554.7852513446156,68.53398140134982L556.8442474149866,69.98655573115944L556.9128806173323,68.72407456524247L560.2759075322716,69.57758976013348L560.3674184687325,68.3142018561382L561.6028161109551,70.05274936091689L561.8315934521075,74.18005834042754L562.6094364120254,71.12428295559494L562.8382137531777,68.12370651919431L563.4330348401737,66.78593142075232L564.4625328753592,63.65606856153794L564.9887207600096,63.550088948786744L566.1554851998866,63.555541473011075L566.7045508186521,61.66095997110946L567.1392277668416,60.60861118932703L568.2144812702575,61.533956971762905L570.7996652252789,60.70856306526441L571.9206741969252,59.51018239606762L573.7737706602592,59.54894067215519L574.0254257355267,59.11708525465505L574.4829804178314,64.41852300474469L576.1530550082434,66.32597748984061L577.4570858528117,69.15396111720317L579.9050034031417,67.62554675241118L583.1307639133895,66.59171511922074L584.0229955438836,69.2073856346424L584.6864498332253,66.89657069314079L586.6768127012506,64.21767688593991L587.7749439387818,69.89125830720869L587.8206994070123,67.05250436336746L588.6900533033911,68.12149596230478L589.2162411880415,69.94141035616964L590.840560310223,66.73002017307348L594.066320820471,69.78234306934228L595.5304958038458,67.40120509619767L597.7725137471386,70.81218028211124L597.9555356200606,69.54559002711325L601.9362613561111,66.59381626918221L602.6912265819138,64.1753029295341L604.3841789064411,63.08873970803712L605.2764105369351,65.77366186162553L607.2438956708452,71.57784045457815L608.9139702612572,69.63290455473498L609.485913614138,69.27174717392874L609.7833241576361,71.9414731076818L609.9892237646732,73.9434613090047L611.7965647597765,72.42934740334424L613.1463510725753,71.41191373532376L615.7544127617119,70.54454886047107L616.0975787734404,72.25630734327045L617.9049197685438,68.72854486805612L619.895282636569,67.77146081604518L622.7778771350885,68.58710251221882L623.5785978291216,67.34765115531708L625.2715501536488,65.7997412286649L628.1083891839378,63.585076689339154L628.5888216003576,66.66844279523741L629.1607649532384,64.87013443851252L630.6020622024981,63.61078409520844L630.6249399366135,62.24611504870425L630.9452282142266,61.762722490255264L633.7591895104003,65.33533711558736L634.0108445856679,72.67234453445101L636.2986179971913,69.94242757552102L637.8314261829119,68.5053668122137L642.4069730059584,66.06590820637939L645.312445238593,65.71184372939871L645.3353229727084,63.78079169684695L645.9987772620501,63.12914068867897L646.0445327302805,67.47975202873933L648.3094284076886,66.06534281136335L653.2052635083485,64.05005571728987L653.3425299130399,69.10454593113893L653.4797963177313,72.24158809290205L653.5713072541922,69.48379502547677L653.5941849883075,67.3325805339115L656.2251244115592,65.48250416805715L661.5098809921782,64.61824125211746L663.751898935471,62.556964066760415L663.9806762766233,65.74107108121974L664.14082041543,66.93419224793726L664.5526196295042,67.89944479840163L666.8632707751426,68.81926053599449L668.8307559090526,69.48244751639784L670.9126297135389,69.08494527190294L670.9583851817694,68.83863425344049L671.6904726734568,68.40372889581644L672.1022718875311,66.16672382618424L678.5766706421421,66.60286330890133L679.1714917291381,68.33199964919027L680.1781120302084,71.63134186221721L682.8548069216906,65.96060987478093L683.1522174651886,70.59842732222718L685.2569690037901,70.30389715496666L685.9204232931319,69.26354537309656L686.8126549236259,68.16357541936297L695.0257614709947,67.24370826268007L695.6205825579907,65.89873615514591L696.1238927085258,64.88293111461225L696.5585696567152,62.38235196349341L697.130513009596,62.98010630970357L697.4965567554398,61.97383161480902L697.7710895648225,61.8481664516797L700.3105180516135,60.65684477301882L701.728937566758,61.39533444905581L706.4875062627264,61.70266518419901L706.647650401533,62.43155466782488L706.8535500085701,67.50260783644191L707.9974367143318,68.08819439600452L708.0660699166775,65.87440348071037L708.5465023330975,63.81153857013211L709.2557120906697,61.32811302392136L709.690389038859,64.05132995958766L712.8017608785307,63.53777447270595L714.6548573418646,63.49438705169102L714.6777350759799,61.656826250727754L715.4555780358977,61.10886708715666L718.5898276096848,63.533518818317276L718.7042162802609,63.476082296357845L719.299037367257,66.97210522385541L720.3514131365577,67.46382643887534L720.6945791482862,65.05724827472297L722.5705533457353,65.50781230658055L723.5542959126902,64.99823695839439L724.1491169996864,64.42715982200959L725.0871040984109,64.34107430950587L726.0708466653659,63.60146325308588L729.0907075685767,62.07350558114365L729.2508517073834,61.86928993145473L729.3423626438444,62.215455508842474L731.6758915235981,66.17566930908498L732.5910008882074,63.17138190053491L734.7415078950394,64.9190282434444L735.0617961726525,63.67661278264067L735.4735953867269,67.41846664241946L742.65720389891,64.69895941149858L743.8697238070173,66.9366893278697L750.7559217757025,64.13495680396105L751.602397937966,63.95823306147237L757.3904646691201,62.04927040865488L757.9852857561161,61.73516588152446L758.9003951207254,61.001791744332195L759.9527708900262,61.7017376075286L761.4398236075162,63.04628307082436L761.5999677463229,63.75328026565868L761.7829896192449,62.453770320274984L762.881120856776,61.24018248353135L763.087020463813,63.342976683822265L764.4368067766119,62.03917956661034L764.73421732011,63.81501534907058L768.3260215762016,60.94878641802033L769.0809868020042,60.66633353268854L770.041851634844,61.113793291784575L771.528904352334,64.1655627932085L774.2971101802774,61.40547660381178L776.4476171871092,60.88160991347021L776.7450277306073,63.21451620219485L778.3235913845583,62.054169786504524L779.375967153859,61.54152356961068L780.4969761255055,59.23264229443975L781.7781292359585,62.5630045324144L784.7979901391693,62.6665224483259L784.9810120120911,63.20428605711019L787.2687854236145,62.033258637994464L787.5433182329974,62.91725562290382L788.0008729153019,62.50011667620287L790.6089346044386,62.344184098966146L790.7004455408994,59.2951479440647L791.3181443620108,57.034559072591335L791.3638998302413,56.983761221746995L793.4228959006122,58.27183052095196L795.0243372886785,56.91307656783149L795.6420361097898,55.774020302474895L795.8021802485965,60.671596633594845L796.4427568038229,60.50553428999742L799.5541286434947,60.25343697745489L801.6588801820961,62.145104488910896L801.8190243209027,61.555638475730404L803.8780203912738,61.31927021031217L804.0839199983109,61.887781491477114L804.3584528076937,59.27320756238112L804.7931297558831,65.56333554206698L805.1820512358421,63.81508612692647L806.4174488780646,64.18093238459657L806.6919816874474,66.77574040539554L807.2639250403282,65.11499940136068L808.1104012025919,66.30986633396566L810.489685550576,62.53352247546296L810.9243624987656,61.80094325555277L811.0845066375722,60.84828559554743L812.1368824068729,61.05965861987838L813.326524580865,59.26673847264142L813.3951577832108,60.19809087275365L814.1958784772439,63.820361307002884L817.1699839122242,63.17821858751543L818.3596260862163,63.99969976646269L818.3825038203315,62.32306617878749L818.8629362367515,63.03132454505024L820.1212116130893,61.52166926412858L822.1115744811145,60.26604687035719L822.1344522152298,62.77886913543287L823.0038061116086,62.23746447891631L823.8045268056417,63.86428106341325L824.010426412679,61.81340542007499L827.2819423911573,60.77652838240532L828.0140298828447,59.381732225003525L830.1874146237918,62.1652839368966L834.7858391809538,60.8819959025239L835.6094376091021,59.563006141893666L837.0278571242466,58.14789277088038L838.7894426511195,58.65960602384113L840.5967836462229,58.228277106079524L841.0772160626428,57.51057617957051L841.2602379355646,56.40957524262555L841.5576484790627,59.30418605274735L841.6034039472933,60.54921040120748L841.7406703519845,58.93984916139242L843.9826882952774,58.1704873370368L844.0284437635079,59.11003723722135L846.0188066315332,63.42153748898401L846.0874398338789,61.807809192014574L846.7051386549902,61.24911315222533L850.617231188695,60.822012685608385L850.7773753275017,60.53389275847353L852.287305779107,61.142790668052164L852.4016944496832,61.787300802917564L854.7809787976674,61.551120912165764L855.1699002776263,63.441902887055704L856.7027084633471,64.30003135088802L857.1602631456516,63.347036955736144L859.6081806959817,62.206204753690066L860.7978228699736,62.93683114264195L861.1409888817021,63.42079939253011L861.4841548934306,65.1151077018726L861.8501986392744,66.29449212439646L862.1476091827725,65.13766988027552L862.9483298768056,66.1763826963018L863.5431509638017,64.22209271481172L868.8736630126509,65.10046798808885L870.246327059565,64.74356228679788L870.932659083022,64.7858115812672L871.3673360312114,66.26945707578903L873.4034543674672,65.78576628830584L874.2956859979613,65.68026814282955L874.3871969344221,66.55402653963905L874.5930965414592,66.01267059928547L875.3023062990314,65.5524965140716L876.6063371435997,64.1364756478242L879.9464863244239,65.06230283857813L882.6003034817909,68.50632565513136L883.3552687075936,66.58808686190895L885.848941726154,65.3983203472825L886.1921077378825,64.03021051981972L889.1433354387475,68.11014298429797L889.9211783986656,71.43231041547075L896.2125552803546,72.40447149271908L897.1962978473096,80.85437154942136L898.7748615012607,81.12672581388627L903.6935743360358,79.82385073361945L906.0042254816743,78.45776873174718L907.2625008580121,76.86660318515388L907.6056668697406,72.71558698760762L909.1842305236918,71.50279814888646L909.9620734836096,69.94071619838587L911.655025808137,75.19554428486825L912.0210695539807,72.99336701168254L912.2727246292482,70.52852084100158L913.0505675891661,69.1024750604277L914.8807863183848,71.1198394641098L916.276328099414,67.87590939490069L916.2992058335293,67.55173783239334L917.6261144122128,66.7527474064779L918.0836690945174,67.04431047018649L919.0674116614724,65.34093197573488L920.8289971883454,65.8681025205853L924.0547576985933,64.37658057920575L924.5809455832436,60.50564620058612L924.6038233173589,59.17668981251113L927.7151951570305,59.06063940503836L929.911457632093,59.85037884587403L931.2612439448917,59.711255563375666L931.5128990201592,58.05905603513058L938.0101755088854,58.39596774699947L940.5496039956764,58.74576265913874L941.1901805509028,58.394953960094284L942.3569449907799,57.77328382726553L944.5760851999573,58.112020355470285L945.2852949575296,61.35855975114477L945.3996836281059,59.115731016426224L945.7886051080648,54.817526014263976L946.9553695479416,53.69563011089683L947.8247234443205,53.953349807302324L952.491781203828,56.42342175432124L954.1389780601248,55.1887961122523L956.5411401422243,55.62941115215915L958.5315030102496,55.70887745735882L958.8060358196324,55.96061840009011L959.5381233113197,58.15763849596919L960.1786998665464,57.50282719809425L962.1690627345716,55.09523608708721L962.3978400757239,54.27875428172004L962.5351064804154,56.954852542369665L962.6266174168762,56.58929950076743L963.3358271744485,55.4630196856276L963.3815826426791,55.70653114042461L963.7018709202922,57.38552932598614L963.8391373249837,57.8391088341682L965.5092119153958,56.210632186347624L971.1600122418582,58.75280820074504L973.1732528439987,57.35411195586652L973.7680739309948,57.81221216475168L975.8270700013658,58.44262858491852L976.444768822477,58.07021480148238L978.0462102105433,54.87858907608371L979.6018961303793,57.22241513704807L981.4778703278283,55.38797250509483L982.5760015653597,55.53080236142109L982.9420453112034,59.252694225535485L984.1774429534258,59.21290128820043L984.6121199016153,59.313262853311436L987.9065136142088,59.439483933456025L988.0895354871307,58.46702306025538L989.5537104705056,58.748186999259524L990.171409291617,59.51082968594571L993.2599033971734,62.95975609587954L993.4200475359801,63.86387368811209L993.8318467500542,62.763580462046306L996.1882533639232,60.60859217752548L996.7373189826887,59.319209047527785L996.9660963238413,58.2647313568702L997.2863846014544,57.21930818415893L998.7048041165989,56.65812256406863L1000.878188857546,57.82942375651384L1003.417617344337,53.83337501464144L1003.8294165584111,53.053663570792175L1004.0581938995634,55.0846368622227L1004.5386263159834,58.202790641147836L1007.0322993345438,60.11441281203443L1008.6337407226101,58.86680734558867L1010.8757586659029,57.96496489126553L1013.5524535573852,59.459622183683074L1014.4218074537641,57.68197300940639L1015.1767726795667,59.50182139039556L1015.5656941595257,60.37647369003409L1016.4579257900198,58.881063688309105L1022.36038119175,56.39305147219066L1026.8444170783357,58.983546634288686L1027.8510373794059,59.23629960577599L1028.651758073439,58.575879223994L1029.3380900968962,60.46659667085614L1029.8871557156617,59.024474525854686L1030.6192432073492,56.438797599366524L1032.2664400636459,56.18212156898191L1032.8841388847572,57.10993049511456L1032.975649821218,56.32873357595902L1033.3188158329465,56.153799442421935L1033.9136369199425,56.37957196873954L1034.4169470704778,57.14874915069705L1035.1719122962804,57.08794242234805L1038.3290396041828,57.50136181890539L1038.4205505406435,57.11938529282328L1038.7179610841415,54.88316130058855L1040.5481798133603,54.17583089211574L1040.6396907498213,54.457005734967325L1041.4632891779695,52.68852394815135L1043.4536520459949,52.88991522970355L1043.6137961848015,54.10064328519948L1044.6204164858718,52.41664218927035L1045.8329363939793,56.24308325506257L1046.7251680244733,56.300339067109086L1048.1207098055024,57.51410543825617L1050.33985001468,56.212726785931956L1051.209203911059,54.80979402054235L1052.2615796803598,53.28431311204448L1052.284457414475,52.755414202439766L1053.6342437272735,53.70533378314782L1055.555973392953,55.861895319166884L1056.1050390117189,54.646865153571134L1057.226047983365,53.18297939650148L1057.5463362609785,52.46805563733447L1060.932240910033,51.352817678854876L1061.61857293349,52.669989727972826L1062.9683592462886,51.38979134288853L1064.1351236861656,52.81326509421201L1068.8479369139036,51.72565432809666L1069.0538365209406,53.32348988715372L1070.266356429048,52.8134745409973L1073.3548505346046,53.35823625936749L1074.178448962753,54.10144079308403L1076.534855576622,54.11420084648994L1076.8093883860047,53.8922405892422L1079.394572341026,54.698910590687824L1080.9502582608618,54.946378844285135L1081.7509789548951,54.60727688113874L1085.18263907218,55.08795512256461L1085.3885386792172,57.7757633405267L1086.0062375003283,56.851848821377516L1086.6925695237853,54.64729389667709L1087.4704124837035,56.6305506023384L1088.4999105188888,57.08877100218612L1088.6829323918107,57.4762551518178L1089.3235089470372,61.11824653926523L1091.9086929020586,58.757782868338786L1092.2747366479023,63.94194706869806L1093.6931561630468,64.13069507047842L1094.0820776430057,64.09581442581565L1096.0495627769158,72.2759971784252L1096.255462383953,72.1750010568344L1100.5564763976167,71.21096865378561L1101.7461185716088,69.99324935947577L1108.334905996796,68.09232812357946L1108.8153384132158,71.00567851677616L1112.0410989234638,73.70006879270322L1113.0248414904188,72.60941953215783L1114.2373613985262,71.1028971768606L1114.3975055373328,68.41297254971569L1114.8550602196374,67.78564789985244L1115.4498813066334,70.82599087277815L1117.5088773770044,68.43152834530586L1118.6985195509965,67.39771831659476L1120.0711835979105,68.72165767784801L1120.2313277367173,66.37923400902419L1120.894782026059,66.41164768491078L1122.1073019341663,68.70663447859708L1122.1988128706273,68.30670756560885L1122.4962234141253,64.50141793240346L1122.8165116917385,62.84615135803847L1123.365577310504,62.55725920082021L1123.640110119887,61.88569729469767L1124.3721976115744,59.96277585546977L1124.532341750381,62.83293679337461L1124.8526300279943,61.53384852117658L1127.4378139830155,60.22049804065874L1127.6894690582833,59.97878128457614L1127.8267354629745,62.07556597778485L1128.7647225616993,60.2031770307248L1128.85623349816,58.43274494345063L1129.1765217757734,61.676834157551795L1129.7027096604238,61.7711441037098L1132.1277494766384,63.013497064027995L1133.1114920435934,61.659623863314316L1134.1181123446636,61.27713090409947L1134.529911558738,60.938497231468325L1134.8959553045818,60.823188777410614L1135.5822873280385,64.18154948431246L1140.020567746394,60.37708503156446L1141.0500657815794,56.60734276280935L1142.1481970191105,58.06779227207347L1142.3312188920324,57.498663455320255L1144.8020141764775,56.710465238114054L1145.2595688587821,62.43656839021957L1149.6978492771375,61.88832575073114L1152.8549765850396,66.79224170518476L1159.4895194784572,64.03773104545024L1160.7249171206797,62.95851232235518L1161.2968604735606,60.51553364565191L1164.17945497208,58.87474732637915L1166.0325514354138,60.29162384651564L1167.1535604070602,60.375576357297525L1167.4280932164431,59.9381591239008L1167.8627701646326,59.20178060603647L1169.2125564774312,58.99002912466803L1171.8663736347985,60.0411949660717L1173.6737146299017,59.63091258296955L1176.2817763190383,62.151982872173804L1177.4256630247999,60.20870436135812L1178.2721391870637,59.46091886853289L1179.5532922975167,59.621153279569036L1179.9193360433603,59.886739768562244L1180.6056680668173,58.34154633356777L1182.2757426572293,59.7363502757543L1184.8838043463659,56.9368399947011L1186.8970449485064,56.31988236061559L1188.4527308683423,55.70675744339365L1189.1390628917993,54.521434596172085L1190.0999277246392,52.98175998404639L1190.5346046728284,54.04974762314462L1190.5803601410591,53.712217299487484L1190.7176265457504,54.02077239714131L1194.8813741547228,54.58001464565784L1198.54181161316,53.6721089876712L1199.3654100413087,52.93041328695551L1201.9963494645604,51.61426601484322L1202.0878604010213,54.2177530900102L1204.215489673738,52.64899281249472L1205.4737650500758,52.669984136914444L1206.8464290969896,51.54355221145754L1209.019813837937,54.43694324381154L1213.6868715974445,53.64526146453391L1216.180544616005,53.19075209700519L1217.187164917075,52.57243656215362L1217.278675853536,57.026542773047815L1217.461697726458,55.60935938904487L1218.0107633452235,64.50927727911854L1220.8476023755125,62.82209949876034L1221.9228558789284,59.08751063753223L1223.4327863305339,62.52511785113265L1223.4785417987641,61.91379735240475L1225.9264593490943,60.55382328884067L1227.3220011301232,59.17964008573122L1228.5802765064611,58.31525518855393L1229.2208530616876,56.19869122689035L1229.9758182874905,56.146530781604916L1230.524883906256,57.99727130721385L1230.7536612474082,62.22406230132208L1233.4303561388906,62.43211198263159L1233.567622543582,63.70809464382625L1233.9794217576562,61.852617489464315L1235.5808631457226,58.89690236077764L1235.6952518162987,58.27980221849397L1236.5646057126776,56.4478103751871L1237.3882041408258,56.605740651124506L1237.502592811402,59.58752764400204L1239.8132439570406,59.10236038033871L1240.24792090523,56.66800043690661L1242.4213056461772,55.58705511986673L1242.6272052532145,59.29113142740671L1243.382170479017,57.85219977260434L1244.846345462392,56.04312648922553L1245.0751228035442,53.545414525748626L1246.8824637986477,52.147153276313354L1247.2256298103762,52.00437801250951L1248.0721059726397,51.695289460030544L1248.8270711984426,52.300058051648605L1253.9516836402547,51.740722144886156L1254.1347055131766,48.55323251751149L1255.4844918259753,49.75512270322053L1255.8047801035887,48.812306087077005L1259.6024839667173,48.31802995785524L1260.9293925454008,49.532512366699045L1261.0895366842074,48.33275925232911L1261.1810476206683,47.95080322665773L1261.2725585571293,49.0688098296479L1263.6289651709983,50.08017225695345L1264.4983190673772,49.56158852044137L1265.2532842931798,48.81492080721391L1265.5049393684474,48.01889518399123L1268.1816342599298,50.2266823000045L1269.3026432315762,51.36675130461051L1269.6458092433047,49.93154767556397L1270.1262416597247,50.24563010059472L1270.1948748620703,51.825164934041055L1270.4694076714532,52.60980753479393L1271.842071718367,54.36886090869108L1273.1689802970507,53.72103142053197L1274.6102775463103,52.889109921287755L1276.0744525296852,54.55521313754937L1278.316470472978,55.621693623675746L1281.1304317691518,54.99747713999204L1281.9540301973,58.77739241980197L1282.457340347835,56.44898771137757L1283.4639606489054,58.65857864806529L1283.7613711924034,57.94522654631925L1284.104537204132,59.13874898727508L1286.1177778062724,59.16165209381767L1286.163533274503,58.89889484776572L1287.3989309167255,60.29107948277545L1289.0918832412526,58.10189467961141L1290.1213812764383,58.56531990456003L1291.2423902480846,56.96546594376651L1294.9485831747525,60.83388980368316L1297.373622990967,59.365868426011964L1297.442256193313,57.541133442569674L1298.037077280309,56.41711042820466L1298.746287037881,57.312288014228166L1299.798662807182,57.396113141771714L1302.2237026233965,55.66404602363727L1302.841401444508,56.37526643063749L1302.955790115084,53.54369140541802L1303.1388119880057,54.921943595136895L1303.825144011463,52.26912100532315L1306.8450049146736,52.04011490137077L1308.057524822781,53.386181242614164L1308.720979112123,53.32898481309308L1310.4368091707652,52.94877974715674L1312.564438443482,51.8804117910933L1312.6330716458276,51.65505006515713L1315.4927884102317,53.488460306204054L1315.607177080808,52.22720260710156" style="fill: none;" fill="none"></path></g></g></g></g><g opacity="0.2"><g><g><g><path stroke="rgb(0, 119, 187)" stroke-width="2px" d="M33.218668985531245,203.80957714849748L33.287302187876946,272.1528558751258L33.88212327487301,289.08062742699445L34.40831115952337,263.6692524449364L36.078385749935386,275.3250829759536L37.496805265079836,202.14048407633777L37.611193935656004,251.2091578784549L38.0916263520759,76.33210559134496L38.50342556615009,181.90386752178802L39.30414626018325,303.58621872483167L39.34990172841372,227.66888651666667L39.53292360133559,242.16355041772636L43.101850123311955,264.6556821635831L44.520269638456405,256.8124318171954L45.50401220541142,150.75191217137066L45.664156344218064,208.14086521124216L46.76228758174924,320.81097631298377L47.05969812524728,114.29918827155427L48.5925063109679,60.25354796610846L48.77552818388976,123.94403551929591L50.216825433149445,220.70943231826115L50.60574691310841,102.07155689807324L50.74301331779981,87.77796854668006L51.38358987302634,94.67327676342025L54.4720839785828,183.6988673571669L55.45582654553783,71.1571945110295L56.64546871952995,71.49638904848607L57.514822615908805,236.8241877403898L59.25353040866652,172.10447958102193L61.106626872000405,120.364407891223L62.364902248338225,231.81610073613965L62.433535450683934,58.335554491913236L62.75382372829719,187.85976308447945L62.84533466475812,105.49596166588984L63.94346590228931,68.31381971997476L64.10361004109595,149.3321917708686L65.1102303421662,123.12493633420486L65.79656236562319,200.25544452688308L67.10059321019148,102.95512724711152L67.76404749953323,118.1113478658975L68.4961349912207,126.85922222579099L70.94405254155065,50.11034137993631L71.92779510850566,50.14645012935767L71.99642831085137,199.62774254447274L74.44434586118132,90.38683364303866L74.94765601171643,94.4452770748951L75.19931108698401,203.41680147573612L76.11442045159332,128.6117049747323L76.80075247505033,58.092944657638455L78.83687081130607,91.30360915789586L80.20953485822005,107.8687269341446L82.29140866270627,186.19378031326517L82.56594147208907,85.44371630955901L83.29802896377652,104.68611467203131L84.00723872134876,56.91552083512988L85.03673675653424,177.79877593628422L86.91271095398335,144.8728407240039L87.98796445739931,54.43949866391471L88.37688593735827,353.45633884601455L88.42264140558873,56.94465843969199L88.53703007616491,108.76135627320636L89.10897342904573,163.06877229088957L89.13185116316096,111.94928594143492L89.40638397254376,88.8131549358727L89.52077264311993,55.82802859762536L90.1842269324617,271.4332759844204L93.68452025209236,59.82787561340925L94.94279562843016,78.28011124347655L100.13604127258809,59.71689702262123L101.76036039476963,64.94794617276105L101.82899359711533,47.03596472848276L104.5743216909433,123.03886479804785L106.1528853448944,144.620244851929L106.51892909073811,107.12130857787116L106.54180682485335,52.460126040183496L107.86871540353687,114.69104166693919L111.87231887370265,106.75516763968821L115.02944618160484,115.49905444191198L115.0752016498353,122.6989260781565L116.21908835559695,64.39783634011134L117.8434074777785,63.00750637538318L119.51348206819053,87.01505434034885L119.67362620699716,47.3429622447009L122.1215437573271,86.72153797516097L122.76212031255363,42.169603134591284L124.59233904177228,50.23439722786897L126.01075855691673,195.89748038609136L128.25277650020956,57.61768558475451L128.9619862577818,83.93383693497552L129.07637492835798,46.39561800521468L131.02098232815277,79.065684850867L131.06673779638322,51.136651644447355L132.91983425971713,68.23217591029142L135.02458579831858,208.11586195353996L135.41350727827754,51.87774922042533L135.89393969469745,56.86817938331675L138.95955606613867,50.39072006291004L139.0510670025996,53.62103155685321L139.23408887552145,62.51596433640472L141.79639509642757,58.368063179299625L142.11668337404083,63.06456036205032L142.9860372704197,99.49199796041802L144.22143491264228,89.37148893850691L145.98302043951523,45.097159588248L147.79036143461863,105.59461831290183L147.8361169028491,51.222951364748354L149.0715145450717,69.87415402758357L149.71209110029824,86.09172429558525L154.5392929986124,85.47712819272094L154.85958127622567,92.9609988481751L156.25512305725488,86.39107008984566L159.20635075811998,72.47374864617545L162.18045619310027,98.05235795871805L163.18707649417053,101.92200803134884L165.13168389396535,122.0530274040955L166.4128370044184,52.128894890832484L166.57298114322504,40.57319188022932L167.39657957137342,92.07838575944827L167.8770119877933,57.786500507846206L169.29543150293776,54.09548284196609L169.75298618524243,122.66251122805417L172.29241467203332,134.26442073275075L172.52119201318564,58.66917084137573L174.09975566713672,148.31510268998863L174.39716621063477,57.6934586218967L174.53443261532615,31.33440865260359L176.13587400339247,51.49689318768785L176.66206188804284,60.05657496063375L178.12623687141775,50.852990926120206L181.42063058401132,52.55649448522183L182.6560282262339,61.72120293818473L183.31948251557566,44.67853470681153L185.44711178829232,69.80004745025258L185.51574499063804,53.20040310732312L185.79027780002085,69.47338952458205L189.06179377849918,46.500484123183575L191.62409999940527,50.06129530511018L192.21892108640134,104.83594817263568L194.8269827755379,46.21716687367246L195.01000464845978,82.21112138404243L195.94799174718432,109.56876400241754L198.0527432857858,54.25099152870241L199.51691826916073,50.11677823997055L200.6150495066919,95.02949844940615L201.14123739134226,49.79786108372856L202.69692331117813,116.9200048106049L202.92570065233045,44.5183192251885L202.99433385467614,98.40514495654338L203.33749986640464,138.6300453412339L204.09246509220733,53.534292959731715L208.25621270117975,41.244819707893065L210.42959744212692,104.21063934100391L210.65837478327924,104.3052538688936L211.4590954773124,57.21961794801237L215.07377746751922,89.23737708690412L216.7896075261617,41.01309910719401L219.3976692152983,105.07374785335227L220.33565631402283,72.85915882099252L223.58429455838595,155.25887658286112L223.6986832289621,86.88046862899061L223.9045828359992,63.60914925150866L226.03221210871587,68.08829427903196L226.6727886639424,57.73491658010144L226.90156600509476,100.22891666580064L229.02919527781143,86.90061243899896L229.80703823772933,48.81901948170327L231.17970228464333,49.728728443696774L235.36632762773098,105.0950461002146L235.96114871472705,64.73123643143037L236.02978191707274,111.58658446181278L236.51021433349266,63.54383929218889L236.67035847229926,109.65225077672034L237.9972670509828,54.135814985718206L239.41568656612722,53.00654676332743L244.10562205975003,69.83667776343161L245.38677517020307,101.80438109278337L246.11886266189057,97.04543778098011L248.10922552991582,52.913504877377925L248.86419075571854,62.94506501673085L250.67153175082194,117.1912131942166L250.8316758896286,66.32367235227316L251.1290864331266,82.35913736216186L253.18808250349758,75.35205548792982L253.71427038814795,108.2040049730181L254.12606960222215,87.57775166905371L257.44334104893096,64.0728766769202L258.90751603230586,99.81163703722707L262.36205388370604,97.30025347929218L262.95687497070213,42.5338327324182L267.3493999208269,56.10134708826907L267.5095440596335,54.02988665863293L270.16336121700056,88.83565850385804L271.9935799462192,61.993319287972234L272.9773225131742,36.87072525381398L274.921929912969,42.599276262944194L275.63113967054124,47.42411629329464L275.997183416385,54.795052493869385L277.30121426095326,166.74239389728982L278.353590030254,98.07481700296795L278.37646776436924,65.74158811706207L278.87977791490437,147.13525868443355L280.27531969593355,40.37398632745021L280.48121930297066,115.19165780220855L281.67086147696284,73.35361398437382L281.7394946793085,147.17671187223806L282.6088485756873,44.22008652431347L283.13503646033774,47.67337288521352L283.27230286502913,46.65519138268247L283.31805833325956,65.88489730029474L284.3704341025603,96.39315551635407L286.2464083000094,121.72783876169368L286.6810852481988,57.59004906612923L286.88698485523594,84.85593939674841L288.4426707750718,50.661519782236L288.48842624330223,85.04242070199933L289.8610902902163,96.03491754120725L293.4986500145383,71.2369047184891L294.7111699226457,75.32260303695301L295.16872460495034,91.04507254740984L295.8779343625226,63.46323224948736L296.0838339695597,59.55187933810703L296.4727554495186,84.49268932110064L296.8616769294776,64.76212954327454L298.7376511269267,92.38078779011822L299.5841272891903,107.81155209733848L301.27707961371755,52.6795580899081L303.88514130285415,99.72463765822671L306.08140377791653,67.94689961642209L306.1957924484927,50.510794216789925L307.01939087664107,73.85339291440404L307.7286006342133,71.2067112653443L309.94774084339093,53.99034322105105L310.542561930387,90.50403919625107L311.00011661269167,100.3946530906151L311.96098144553144,93.1858564330867L313.42515642890635,44.7218181381683L316.05609585215814,76.67350087343777L317.2686157602655,57.73162182368074L322.14157312681016,157.435705612623L322.7821496820367,46.07467183874449L326.8543863545482,46.29981564766944L328.2728058696926,60.16630052629652L330.0572691306808,95.09418189616328L330.4461906106398,137.89089965401385L331.0638894317511,95.82337255318463L331.54432184817097,57.97168108396965L331.81885465755374,174.72929689572626L332.1620206692823,39.247567624126035L335.1361261042626,70.2555570662133L338.86519676504554,60.89669332417408L338.9567077015065,53.0244771076323L341.19872564479937,58.419831562519676L342.15959047763914,100.50268675433209L343.326354917516,98.64803465429792L343.8525428021664,55.618697075306265L345.20232911496515,80.00988698673967L345.2709623173108,42.626283088740045L347.4214693241428,64.77394105422673L348.1993122840607,89.48416897204112L349.0000329780938,42.35078929559466L349.89226460858794,93.93844431306847L354.3763004951736,51.3982413110761L357.6020610054215,22.959990142718304L359.1119914570269,86.81357171653002L359.2721355958335,94.05545587000518L359.8669566828296,85.24227184894194L360.27875589690376,108.41319179319714L361.6285422097025,42.59357722481113L362.77242891546416,39.3833650171409L367.0048097267823,65.0739865071865L367.14207613147374,59.29376252284066L367.8284081549307,88.31690610200752L368.03430776196785,103.3324977074194L368.2630851031201,123.52299085234634L370.3678366417215,59.243399817552984L370.5737362487587,128.51509085408247L371.05416866517857,72.75618178151191L372.51834364855347,31.675753050427346L372.9530205967429,80.23457283724323L377.4828119515591,92.42774442964667L378.53518772085977,48.06871185302805L379.5418080219301,79.56297045171398L381.5092931558401,60.75889236306554L382.83620173452357,45.80169045638322L386.2449841176933,103.46141141291248L386.2907395859238,43.657853514563655L387.0228270776113,105.98841962171112L387.7320368351835,127.80485930798906L392.3533391264606,116.50735167518093L392.90240474522614,114.08101401735512L393.1083043522633,69.61680047635286L394.3665797286011,101.75789513274363L398.1414058576146,82.84454466645357L400.47493473736836,126.44818864124278L400.95536715378825,84.13504923611508L403.99810579111426,117.46132279564361L405.645302647411,96.28632081322645L406.14861279794616,50.41172890549216L406.5375342779051,66.44751194206242L407.5899100472058,123.00414542769147L409.85480572461387,47.703610862093726L411.68502445383257,113.37109895750149L413.4237322465903,41.031792715534536L414.24733067473863,88.70828245737016L416.7867591615295,114.6719219028454L416.8096368956448,108.82550384500513L417.907768133176,88.41065718745686L418.8686329660158,55.190747651567236L422.68921456325967,54.00707142449971L423.3984243208319,39.81147345422068L424.17626728074987,122.99871273690417L426.647062565195,60.62424622663778L427.40202779099775,34.25748729058429L427.8138270050719,80.22599883790909L427.8595824733024,106.99293551773665L428.408648092068,63.37219393163153L428.4315258261832,70.99218954758254L428.5001590285289,62.974762348252455L428.9348359767184,38.001227419729084L429.7355566707515,74.08747963361374L430.44476642832376,97.77895996140398L431.33699805881776,139.12501809303947L431.5657753999701,91.47312055942011L433.6018937362259,59.64202718125457L433.9221820138391,28.951714591351315L434.58563630318093,52.67663860497161L434.7686581761028,55.62533747241667L435.4321124654445,53.991698014714366L437.6970081428526,102.36968146987657L442.98176472347143,43.6766870546441L443.62234127869795,58.41764989948437L443.8282408857351,73.79883225692012L444.46881744096163,100.75870459350037L445.2695381349948,32.911935482616094L445.5440709443776,90.26791074574592L447.0082459277525,67.17350961120114L450.09674003330895,46.44315027303669L451.33213767553156,127.6376993162414L454.37487631285757,67.1874900641214L454.39775404697275,104.50106130658045L457.60063682310545,48.151201613684265L460.3688426510486,117.13417590395022L460.5289867898553,56.562689313569095L463.38870355425934,57.26958630021496L465.9738875092807,45.92049886407057L467.0491410126967,52.903366186770654L467.5524511632318,103.79836068199745L468.0328835796517,48.221835339652884L469.5885694994875,48.57203996082417L470.80108940759493,116.7091411947475L472.12799798627844,71.15113928301311L473.1346182873487,43.104054572408145L478.94556275261795,50.65070051453025L479.0828291573093,93.82355399409761L481.57650217586973,51.44203358512327L481.89679045348294,59.53346559324624L483.6583759803559,102.86872416813905L483.79564238504736,105.89112253876273L485.7631275189574,63.88221968134075L486.2893154036077,92.38204081524343L487.89075679167405,165.29124450998518L488.3940669422092,57.71741239154983L489.14903216801184,58.75349879625122L489.69809778677745,47.33271542502188L490.6132071513868,98.24866310816155L491.02500636546097,56.76033017507503L491.1622727701524,66.19543763374516L491.230905972498,117.42436332484918L492.9696137652558,57.99984552688629L492.99249149937106,78.09329919047683L494.067745002787,59.657349706770866L494.7769547603592,89.7637494080442L495.39465358147055,42.51341541946374L495.4632867838162,81.89049960478744L495.57767545439236,95.64743065215976L497.20199457657395,76.10817028380986L497.4536496518415,38.639049011145815L498.5746586234879,103.95081313232427L499.8786894680562,91.78115166235324L500.90818750324166,48.417021035177406L501.84617460196625,61.691982646685396L502.1435851454643,142.20357441015506L502.1664628795795,73.084207221913L502.66977303011464,39.28815418922336L503.0358167759584,168.92230460559577L505.5752452627492,143.37951304806086L506.05567767916915,74.37240609813342L507.6342413331202,105.19272481518084L507.7028745354659,53.852135185790125L507.72575226958116,80.92643034211937L508.8238835071123,39.615575378929556L509.3729491258779,76.78505827278616L512.3928100290887,73.63876942810421L514.5204393018054,60.61360505387367L515.9846142851803,90.97743463278125L517.4716670026705,49.1078640349394L517.9978548873208,73.54627454804695L519.9195845530004,72.35464765394107L519.9882177553461,49.60333688370168L520.1026064259223,68.71939278640107L521.6354146116429,48.957278401233204L522.0472138257171,70.73073345216007L523.7630438843596,51.856148848215554L524.6552755148537,49.19427824484575L528.2699575050605,70.176495633184L529.2537000720155,61.869835888066305L530.8780191941971,45.141409820716596L531.4728402811932,48.80386233006138L531.953272697613,104.54993087659835L532.0905391023044,48.952151811126875L535.7052210925112,53.87997524149157L541.172999546052,38.46649409427923L541.47041008955,52.13038961623572L542.248253049468,57.19667550320656L543.1176069458468,48.161073161879074L543.7581835010733,80.57262883917994L546.3662451902098,105.43998737980651L547.166965884243,55.78672329222778L548.0134420465067,60.38608240537084L550.0953158509928,68.04897346012713L553.0694212859731,121.26584020882962L554.7852513446156,53.0966182800714L556.8442474149866,83.05972469944608L556.9128806173323,57.36174407198982L560.2759075322716,77.25922651415247L560.3674184687325,56.94371072018101L561.6028161109551,85.69967690392458L561.8315934521075,111.32583915602353L562.6094364120254,43.622304492101826L562.8382137531777,41.118518591588796L563.4330348401737,54.745955534774204L564.4625328753592,35.48730282860873L564.9887207600096,62.59627243402558L566.1554851998866,63.60461419102999L566.7045508186521,44.6097264539949L567.1392277668416,51.13747215328571L568.2144812702575,69.86206901368529L570.7996652252789,53.280017906778255L571.9206741969252,48.72475637329668L573.7737706602592,59.897765156943095L574.0254257355267,55.23038649715363L574.4829804178314,112.13146275555128L576.1530550082434,83.4930678557039L577.4570858528117,94.60581376346651L579.9050034031417,53.869817469283376L583.1307639133895,57.28723042050644L584.0229955438836,92.74842027343753L584.6864498332253,46.09923621962617L586.6768127012506,40.10763262113215L587.7749439387818,120.95349109862798L587.8206994070123,41.503718868796014L588.6900533033911,77.74242035274071L589.2162411880415,86.3206399009532L590.840560310223,37.8275085252081L594.066320820471,97.2532491357615L595.5304958038458,45.97096333789635L597.7725137471386,101.51095695533311L597.9555356200606,58.14627773213167L601.9362613561111,40.027852447802566L602.6912265819138,42.40868287270108L604.3841789064411,53.30967071456445L605.2764105369351,89.93796124392156L607.2438956708452,123.8154477911514L608.9139702612572,52.12848145614651L609.485913614138,66.02133074667273L609.7833241576361,95.96900651145937L609.9892237646732,91.96135512091068L611.7965647597765,58.80232225240026L613.1463510725753,62.255010723139044L615.7544127617119,62.73826498679675L616.0975787734404,87.66213368846503L617.9049197685438,36.9786825911274L619.895282636569,59.15770434794693L622.7778771350885,75.92787777778155L623.5785978291216,56.19258894320107L625.2715501536488,51.868551888795395L628.1083891839378,43.65309583540793L628.5888216003576,94.4187377483211L629.1607649532384,48.685359227988265L630.6020622024981,52.276631005472176L630.6249399366135,49.96409363016625L630.9452282142266,57.41218946421468L633.7591895104003,97.48886874357619L634.0108445856679,138.70541130422376L636.2986179971913,45.373174945151106L637.8314261829119,55.57181994244821L642.4069730059584,44.11078075387033L645.312445238593,62.52526343657275L645.3353229727084,46.401323403881385L645.9987772620501,57.264281615166986L646.0445327302805,106.63525408928254L648.3094284076886,53.33565985497938L653.2052635083485,45.91247187062867L653.3425299130399,114.59495785578083L653.4797963177313,100.47496754876964L653.5713072541922,44.66365741864938L653.5941849883075,47.971650109823955L656.2251244115592,48.83181687536817L661.5098809921782,56.839875008660236L663.751898935471,44.00546939854725L663.9806762766233,94.39803421135326L664.14082041543,77.67228274839525L664.5526196295042,76.58671775258085L666.8632707751426,77.09760217433025L668.8307559090526,75.45113034002802L670.9126297135389,65.50742507144878L670.9583851817694,66.6218350872783L671.6904726734568,64.48958067720018L672.1022718875311,46.03367819949478L678.5766706421421,70.52811865335495L679.1714917291381,83.89422671179052L680.1781120302084,101.32542177945976L682.8548069216906,14.924021987854815L683.1522174651886,112.3387843492431L685.2569690037901,67.65312564962211L685.9204232931319,59.90037933626531L686.8126549236259,58.263845835761046L695.0257614709947,58.96490385253393L695.6205825579907,53.79398718733849L696.1238927085258,55.74068574980896L696.5585696567152,39.87713960342378L697.130513009596,68.35989542559538L697.4965567554398,52.91735936075811L697.7710895648225,60.71717998351558L700.3105180516135,49.9349496650705L701.728937566758,68.04174153338906L706.4875062627264,64.468641800488L706.647650401533,68.99156002045758L706.8535500085701,113.14208635399565L707.9974367143318,73.3584734320677L708.0660699166775,45.950285243063036L708.5465023330975,45.245754374927806L709.2557120906697,38.97728310802415L709.690389038859,88.56028238058484L712.8017608785307,58.91577509077058L714.6548573418646,63.10390026255604L714.6777350759799,45.118779042058655L715.4555780358977,56.17723461501665L718.5898276096848,85.35538439876304L718.7042162802609,62.95915359872282L719.299037367257,98.43631157133369L720.3514131365577,71.88931737405458L720.6945791482862,43.39804479735153L722.5705533457353,69.56288859329928L723.5542959126902,60.412058824718486L724.1491169996864,59.2874655945463L725.0871040984109,63.56630469697243L726.0708466653659,56.94496374530627L729.0907075685767,48.32188653366341L729.2508517073834,60.03134908425452L729.3423626438444,65.33094570533211L731.6758915235981,101.81759351126769L732.5910008882074,36.132795223584075L734.7415078950394,80.64784532962946L735.0617961726525,52.494873635407856L735.4735953867269,101.09515138042849L742.65720389891,40.22339433321041L743.8697238070173,87.07625857521003L750.7559217757025,38.919364088783254L751.602397937966,62.367719379074586L757.3904646691201,44.86860653329696L757.9852857561161,58.908225137351L758.9003951207254,54.40142450960149L759.9527708900262,68.00125037629618L761.4398236075162,75.14719224048628L761.5999677463229,70.11625501916792L761.7829896192449,50.75818081182136L762.881120856776,50.31789195283883L763.087020463813,82.26812448644056L764.4368067766119,50.30500551170311L764.73421732011,79.79753739121281L768.3260215762016,35.15272603856801L769.0809868020042,58.124257564702276L770.041851634844,65.14093112364934L771.528904352334,91.63148830602344L774.2971101802774,36.56470089924135L776.4476171871092,56.16680970039595L776.7450277306073,84.21067280071698L778.3235913845583,51.61105204529118L779.375967153859,56.927707617566234L780.4969761255055,38.452710817901576L781.7781292359585,92.53626467418641L784.7979901391693,63.59818369152935L784.9810120120911,68.04415853616871L787.2687854236145,51.49401186595313L787.5433182329974,70.87322848708803L788.0008729153019,58.74586615589438L790.6089346044386,60.94079090383552L790.7004455408994,31.853822549951666L791.3181443620108,36.68925922933086L791.3638998302413,56.52658056414778L793.4228959006122,69.86445421379676L795.0243372886785,44.68429098974729L795.6420361097898,45.52251391426569L795.8021802485965,104.74978361367437L796.4427568038229,59.01097319762088L799.5541286434947,57.984561164571765L801.6588801820961,79.17011209201543L801.8190243209027,56.25044435710568L803.8780203912738,59.191955821548085L804.0839199983109,67.00438302196153L804.3584528076937,35.742042200517226L804.7931297558831,122.17448735924016L805.1820512358421,48.080841390661746L806.4174488780646,67.47354870362732L806.6919816874474,90.12901259258611L807.2639250403282,50.16833036504719L808.1104012025919,77.06366872741056L810.489685550576,28.5464277489384L810.9243624987656,55.20773027636117L811.0845066375722,52.27436665549964L812.1368824068729,62.962015838856615L813.326524580865,43.13045714750905L813.3951577832108,68.58026247376368L814.1958784772439,96.42079521524617L817.1699839122242,57.39893411212835L818.3596260862163,71.39303037698761L818.3825038203315,47.23336388971072L818.8629362367515,69.40564984141538L820.1212116130893,47.93477173583334L822.1115744811145,48.96544532641501L822.1344522152298,85.39426952111415L823.0038061116086,57.364822570267066L823.8045268056417,78.50563032388571L824.010426412679,43.35552463003046L827.2819423911573,51.44463504337824L828.0140298828447,46.8285668083874L830.1874146237918,87.21724934393436L834.7858391809538,49.33240359316949L835.6094376091021,47.69209829622221L837.0278571242466,45.41187243176011L838.7894426511195,63.26502530048829L840.5967836462229,54.346316846225335L841.0772160626428,51.051267840989176L841.2602379355646,46.500566810120795L841.5576484790627,85.35568334384367L841.6034039472933,71.7544295373489L841.7406703519845,44.45559800305642L843.9826882952774,51.246230917836606L844.0284437635079,67.56598633888193L846.0188066315332,102.22503975484823L846.0874398338789,47.28425451928977L846.7051386549902,56.22084879412218L850.617231188695,56.97810848605568L850.7773753275017,57.940813414260006L852.287305779107,66.6228718542601L852.4016944496832,67.58789201670592L854.7809787976674,59.42550189539918L855.1699002776263,80.45894066106528L856.7027084633471,72.02318752537941L857.1602631456516,54.77008739936902L859.6081806959817,51.93871493527535L860.7978228699736,69.51246864320889L861.1409888817021,67.77651364152358L861.4841548934306,80.36388248595482L861.8501986392744,76.90895192711125L862.1476091827725,54.726269683187276L862.9483298768056,75.52479804053851L863.5431509638017,46.63348288140099L868.8736630126509,73.00584544758311L870.246327059565,61.53141097517904L870.932659083022,65.1660552314905L871.3673360312114,79.62226652648594L873.4034543674672,61.43254920095748L874.2956859979613,64.73078483354259L874.3871969344221,74.41785211092458L874.5930965414592,61.140467136103304L875.3023062990314,61.410929747146824L876.6063371435997,51.39228785159778L879.9464863244239,73.39474755536341L882.6003034817909,99.50253100411038L883.3552687075936,49.323937722907054L885.848941726154,54.690421715644824L886.1921077378825,51.71722207265438L889.1433354387475,104.82953516460256L889.9211783986656,101.3318172960254L896.2125552803546,81.15392118795403L897.1962978473096,156.90347205974228L898.7748615012607,83.57791419407029L903.6935743360358,68.09797501121784L906.0042254816743,66.16303071489688L907.2625008580121,62.54611326581411L907.6056668697406,35.35644120969127L909.1842305236918,60.58769860039592L909.9620734836096,55.88197864388077L911.655025808137,122.48899706320944L912.0210695539807,53.17377155301148L912.2727246292482,48.344905304872796L913.0505675891661,56.26806303526268L914.8807863183848,89.27611909724858L916.276328099414,38.68053877201868L916.2992058335293,64.63419376982716L917.6261144122128,59.561833573239056L918.0836690945174,69.66837804356399L919.0674116614724,50.01052552567017L920.8289971883454,70.61263742423932L924.0547576985933,50.952883106789926L924.5809455832436,25.66723679300933L924.6038233173589,47.21608231983621L927.7151951570305,58.016185737783466L929.911457632093,66.95803381339483L931.2612439448917,58.45914602089087L931.5128990201592,43.18926028092464L938.0101755088854,61.42817315381957L940.5496039956764,61.893916868392026L941.1901805509028,55.23767566869435L942.3569449907799,52.17825263180653L944.5760851999573,61.160649109313425L945.2852949575296,90.57741431221453L945.3996836281059,38.930272403959826L945.7886051080648,16.13368099480367L946.9553695479416,43.598566980592146L947.8247234443205,56.27282707495204L952.491781203828,78.65406927749159L954.1389780601248,44.0771653336322L956.5411401422243,59.594946511320344L958.5315030102496,56.424074204155836L958.8060358196324,58.22628688467191L959.5381233113197,77.93081935888127L960.1786998665464,51.609525517219815L962.1690627345716,33.42691608802361L962.3978400757239,46.930418033415386L962.5351064804154,81.03973688821618L962.6266174168762,53.29932212634737L963.3358271744485,45.32650134936922L963.3815826426791,57.89813423359818L963.7018709202922,72.49651299603961L963.8391373249837,61.921324407806615L965.5092119153958,41.554342355962554L971.1600122418582,81.6323923303215L973.1732528439987,44.76584575195981L973.7680739309948,61.935114044717906L975.8270700013658,64.11637636642038L976.444768822477,54.71849075055696L978.0462102105433,26.15395754749578L979.6018961303793,78.3168496857273L981.4778703278283,38.87798881751569L982.5760015653597,56.816271068356826L982.9420453112034,92.74972100256502L984.1774429534258,58.85476485218515L984.6121199016153,60.21651693931068L987.9065136142088,60.57547365475779L988.0895354871307,49.714875201449146L989.5537104705056,61.27866245029694L990.171409291617,66.37461386612127L993.2599033971734,94.0000937852838L993.4200475359801,72.00093201820567L993.8318467500542,52.860941427454044L996.1882533639232,41.2136976168382L996.7373189826887,47.71476087754832L996.9660963238413,48.774432140952236L997.2863846014544,47.810499629757224L998.7048041165989,51.60745198325621L1000.878188857546,68.37113448852075L1003.417617344337,17.868936337789624L1003.8294165584111,46.036260576148834L1004.0581938995634,73.36339648509782L1004.5386263159834,86.26617465147376L1007.0322993345438,77.31901235001399L1008.6337407226101,47.63835814757665L1010.8757586659029,49.848382802357L1013.5524535573852,72.91153781544111L1014.4218074537641,41.68313044091645L1015.1767726795667,75.88045681929806L1015.5656941595257,68.2483443867806L1016.4579257900198,45.422373672784346L1022.36038119175,34.000941527124695L1026.8444170783357,82.29800309317062L1027.8510373794059,61.51107634916176L1028.651758073439,52.632095787956025L1029.3380900968962,77.48305369261591L1029.8871557156617,46.04537522084162L1030.6192432073492,33.167705260972745L1032.2664400636459,53.8720372955205L1032.8841388847572,65.46021083030828L1032.975649821218,49.29796130355936L1033.3188158329465,54.57939224058775L1033.9136369199425,58.41152470559804L1034.4169470704778,64.0713437883152L1035.1719122962804,56.540681867206985L1038.3290396041828,61.222136387921125L1038.4205505406435,53.6815965580845L1038.7179610841415,34.757145370475506L1040.5481798133603,47.80985721586051L1040.6396907498213,56.98757932063176L1041.4632891779695,36.77218786680758L1043.4536520459949,54.702436763673134L1043.6137961848015,64.99719578466335L1044.6204164858718,37.26063232590791L1045.8329363939793,90.68105284719275L1046.7251680244733,56.8156413755274L1048.1207098055024,68.43800277858006L1050.33985001468,44.50031891501369L1051.209203911059,42.183399132036214L1052.2615796803598,39.554984935563745L1052.284457414475,47.99532401599734L1053.6342437272735,62.254610009520306L1055.555973392953,75.27094914333831L1056.1050390117189,43.71159366320921L1057.226047983365,40.00800758287488L1057.5463362609785,46.033741804831116L1060.932240910033,41.31567605253878L1061.61857293349,64.52453817003435L1062.9683592462886,39.8680058771301L1064.1351236861656,65.62452885612313L1068.8479369139036,41.93715743305829L1069.0538365209406,67.70400991866752L1070.266356429048,48.22333642558972L1073.3548505346046,58.26109172469896L1074.178448962753,60.7902815965329L1076.534855576622,54.229041327142994L1076.8093883860047,51.89459827401298L1079.394572341026,61.95894060369841L1080.9502582608618,57.17359312666083L1081.7509789548951,51.555359212821L1085.18263907218,59.4140592953976L1085.3885386792172,81.9660373021853L1086.0062375003283,48.536618149034936L1086.6925695237853,34.806299574373384L1087.4704124837035,74.47986095329001L1088.4999105188888,61.21275460081591L1088.6829323918107,60.963612498502386L1089.3235089470372,93.8961690262922L1091.9086929020586,37.5136098300007L1092.2747366479023,110.59942487193197L1093.6931561630468,65.82942708650165L1094.0820776430057,63.781888623850485L1096.0495627769158,145.89764195191108L1096.255462383953,71.26603596251756L1100.5564763976167,62.53467702634613L1101.7461185716088,59.033775710686854L1108.334905996796,50.984037000512956L1108.8153384132158,97.22583205554649L1112.0410989234638,97.94958127604683L1113.0248414904188,62.79357618724908L1114.2373613985262,57.544195979185695L1114.3975055373328,44.2036509054118L1114.8550602196374,62.13972605108309L1115.4498813066334,98.18907762910938L1117.5088773770044,46.881365598055616L1118.6985195509965,58.09342805819436L1120.0711835979105,80.63711192912771L1120.2313277367173,45.297420989609755L1120.894782026059,66.70337076788988L1122.1073019341663,89.361515621774L1122.1988128706273,64.70736534871446L1122.4962234141253,30.253811233554735L1122.8165116917385,47.94875218875355L1123.365577310504,59.957229785856285L1123.640110119887,55.841640139595015L1124.3721976115744,42.65648290241849L1124.532341750381,88.66438523451806L1124.8526300279943,49.84205407139451L1127.4378139830155,48.40034371599776L1127.6894690582833,57.80333047983298L1127.8267354629745,80.94662821666356L1128.7647225616993,43.35167650718391L1128.85623349816,42.49885615798315L1129.1765217757734,90.87363708446229L1129.7027096604238,62.61993361913168L1132.1277494766384,74.1946737068915L1133.1114920435934,49.47476505689123L1134.1181123446636,57.834694271165816L1134.529911558738,57.890794177788365L1134.8959553045818,59.78541269089087L1135.5822873280385,94.40679584642955L1140.020567746394,26.13690495683196L1141.0500657815794,22.67966234401362L1142.1481970191105,71.21183785545063L1142.3312188920324,52.37650410454101L1144.8020141764775,49.61668128325883L1145.2595688587821,113.97149675916876L1149.6978492771375,56.95414199533531L1152.8549765850396,110.92748529526806L1159.4895194784572,39.24713510783913L1160.7249171206797,53.2455438145L1161.2968604735606,38.52872555532175L1164.17945497208,44.107670452924914L1166.0325514354138,73.04351252774396L1167.1535604070602,61.13114895433434L1167.4280932164431,56.001404023330295L1167.8627701646326,52.57437394525765L1169.2125564774312,57.084265792351644L1171.8663736347985,69.50168753870491L1173.6737146299017,55.93837113505031L1176.2817763190383,84.84161547501215L1177.4256630247999,42.71919776401692L1178.2721391870637,52.73084943310588L1179.5532922975167,61.06326297889417L1179.9193360433603,62.277018169501154L1180.6056680668173,44.43480541861776L1182.2757426572293,72.28958575543292L1184.8838043463659,31.741247465222393L1186.8970449485064,50.767263653845944L1188.4527308683423,50.188633188396295L1189.1390628917993,43.85352897117773L1190.0999277246392,39.124688474915004L1190.5346046728284,63.66163637502896L1190.5803601410591,50.67444438657353L1190.7176265457504,56.79776827602518L1194.8813741547228,59.61319488230673L1198.54181161316,45.50095806579132L1199.3654100413087,46.25515198051487L1201.9963494645604,39.768940565832374L1202.0878604010213,77.64913676651322L1204.215489673738,38.53015031485505L1205.4737650500758,52.858906056692206L1206.8464290969896,41.40566488234556L1209.019813837937,80.47746253499777L1213.6868715974445,46.52012545103513L1216.180544616005,49.100167789246306L1217.187164917075,47.00759674848995L1217.278675853536,97.11349867109514L1217.461697726458,42.85470893301844L1218.0107633452235,144.6085382897817L1220.8476023755125,47.637499475536494L1221.9228558789284,25.47621088647931L1223.4327863305339,93.46358277353644L1223.4785417987641,56.41191286385397L1225.9264593490943,48.31405671676404L1227.3220011301232,46.81199125774585L1228.5802765064611,50.53579111395847L1229.2208530616876,37.149615571918126L1229.9758182874905,55.677086774035836L1230.524883906256,74.65393603769431L1230.7536612474082,100.26518124829593L1233.4303561388906,64.30455911441749L1233.567622543582,75.19193859457808L1233.9794217576562,45.15332310020685L1235.5808631457226,32.295466202597524L1235.6952518162987,52.72590093794119L1236.5646057126776,39.95988378542521L1237.3882041408258,58.02711313456096L1237.502592811402,86.42361057990021L1239.8132439570406,54.7358550073687L1240.24792090523,34.75876094601769L1242.4213056461772,45.858547266507834L1242.6272052532145,92.62781819526633L1243.382170479017,44.90181487938272L1244.846345462392,39.761466938816326L1245.0751228035442,31.066006854456397L1246.8824637986477,39.56280203139587L1247.2256298103762,50.71940063827513L1248.0721059726397,48.91349248771964L1248.8270711984426,57.742975376211504L1253.9516836402547,46.70669898402365L1254.1347055131766,19.86582587113973L1255.4844918259753,60.57213437460169L1255.8047801035887,40.32695654178504L1259.6024839667173,43.86954479485975L1260.9293925454008,60.46285404629307L1261.0895366842074,37.53498122299978L1261.1810476206683,44.51319899561581L1261.2725585571293,59.13086925655912L1263.6289651709983,59.18243410270296L1264.4983190673772,44.89433489183303L1265.2532842931798,42.09491138816626L1265.5049393684474,40.85466457498751L1268.1816342599298,70.09676634412352L1269.3026432315762,61.62737234606504L1269.6458092433047,37.01471501414518L1270.1262416597247,53.07237192587127L1270.1948748620703,66.04097843505788L1270.4694076714532,59.671590941569946L1271.842071718367,70.20034127376543L1273.1689802970507,47.89056602710015L1274.6102775463103,45.40181642809002L1276.0744525296852,69.55014208390338L1278.316470472978,65.22001799881315L1281.1304317691518,49.379528786839124L1281.9540301973,92.79662993809124L1282.457340347835,35.49334533555788L1283.4639606489054,78.54489707825468L1283.7613711924034,51.52505763060445L1284.104537204132,69.88045095587793L1286.1177778062724,59.3677800527008L1286.163533274503,56.53407963329835L1287.3989309167255,72.82074119786326L1289.0918832412526,38.39923145113489L1290.1213812764383,62.736146929097735L1291.2423902480846,42.56678029662509L1294.9485831747525,95.64970454293275L1297.373622990967,46.15367602697109L1297.442256193313,41.118518591588796L1298.037077280309,46.300903298920296L1298.746287037881,65.36888628843907L1299.798662807182,58.150539289664195L1302.2237026233965,40.07544196042727L1302.841401444508,62.776250093639156L1302.955790115084,28.059516178443022L1303.1388119880057,67.32621330260636L1303.825144011463,28.393717696999534L1306.8450049146736,49.97905996579922L1308.057524822781,65.50077831380474L1308.720979112123,52.814216947403104L1310.4368091707652,49.52693415373002L1312.564438443482,42.265100186522204L1312.6330716458276,49.62679453173161L1315.4927884102317,69.98915247562614L1315.607177080808,40.875883315179436" style="fill: none;" fill="none"></path></g></g></g></g></g></g><g transform="translate(50, 377)" clip-path="url(#clip_1)"><clipPath id="clip_1"><rect width="1407" height="23"></rect></clipPath><g><g><line x1="32.257804152691456" y1="0" x2="32.257804152691456" y2="5" style="visibility: inherit;" fill="rgb(0, 0, 0)" stroke="rgb(204, 204, 204)" stroke-width="1px"></line><line x1="146.646474728857" y1="0" x2="146.646474728857" y2="5" style="visibility: inherit;" fill="rgb(0, 0, 0)" stroke="rgb(204, 204, 204)" stroke-width="1px"></line><line x1="261.0351453050225" y1="0" x2="261.0351453050225" y2="5" style="visibility: inherit;" fill="rgb(0, 0, 0)" stroke="rgb(204, 204, 204)" stroke-width="1px"></line><line x1="375.4238158811881" y1="0" x2="375.4238158811881" y2="5" style="visibility: inherit;" fill="rgb(0, 0, 0)" stroke="rgb(204, 204, 204)" stroke-width="1px"></line><line x1="489.81248645735366" y1="0" x2="489.81248645735366" y2="5" style="visibility: inherit;" fill="rgb(0, 0, 0)" stroke="rgb(204, 204, 204)" stroke-width="1px"></line><line x1="604.2011570335192" y1="0" x2="604.2011570335192" y2="5" style="visibility: inherit;" fill="rgb(0, 0, 0)" stroke="rgb(204, 204, 204)" stroke-width="1px"></line><line x1="718.5898276096848" y1="0" x2="718.5898276096848" y2="5" style="visibility: inherit;" fill="rgb(0, 0, 0)" stroke="rgb(204, 204, 204)" stroke-width="1px"></line><line x1="832.9784981858503" y1="0" x2="832.9784981858503" y2="5" style="visibility: inherit;" fill="rgb(0, 0, 0)" stroke="rgb(204, 204, 204)" stroke-width="1px"></line><line x1="947.3671687620157" y1="0" x2="947.3671687620157" y2="5" style="visibility: inherit;" fill="rgb(0, 0, 0)" stroke="rgb(204, 204, 204)" stroke-width="1px"></line><line x1="1061.7558393381812" y1="0" x2="1061.7558393381812" y2="5" style="visibility: inherit;" fill="rgb(0, 0, 0)" stroke="rgb(204, 204, 204)" stroke-width="1px"></line><line x1="1176.1445099143468" y1="0" x2="1176.1445099143468" y2="5" style="visibility: inherit;" fill="rgb(0, 0, 0)" stroke="rgb(204, 204, 204)" stroke-width="1px"></line><line x1="1290.5331804905124" y1="0" x2="1290.5331804905124" y2="5" style="visibility: inherit;" fill="rgb(0, 0, 0)" stroke="rgb(204, 204, 204)" stroke-width="1px"></line><line x1="1404.921851066678" y1="0" x2="1404.921851066678" y2="5" style="visibility: inherit;" fill="rgb(0, 0, 0)" stroke="rgb(204, 204, 204)" stroke-width="1px"></line></g><g transform="translate(0, 8)"><text x="32.257804152691456" y="0" dx="0em" dy="0.95em" style="text-anchor: middle; visibility: inherit; font-family: Roboto, sans-serif; font-size: 12px; font-weight: 200;" fill="rgb(33, 33, 33)" stroke="none" stroke-width="1px">0</text><text x="146.646474728857" y="0" dx="0em" dy="0.95em" style="text-anchor: middle; visibility: inherit; font-family: Roboto, sans-serif; font-size: 12px; font-weight: 200;" fill="rgb(33, 33, 33)" stroke="none" stroke-width="1px">5k</text><text x="261.0351453050225" y="0" dx="0em" dy="0.95em" style="text-anchor: middle; visibility: inherit; font-family: Roboto, sans-serif; font-size: 12px; font-weight: 200;" fill="rgb(33, 33, 33)" stroke="none" stroke-width="1px">10k</text><text x="375.4238158811881" y="0" dx="0em" dy="0.95em" style="text-anchor: middle; visibility: inherit; font-family: Roboto, sans-serif; font-size: 12px; font-weight: 200;" fill="rgb(33, 33, 33)" stroke="none" stroke-width="1px">15k</text><text x="489.81248645735366" y="0" dx="0em" dy="0.95em" style="text-anchor: middle; visibility: inherit; font-family: Roboto, sans-serif; font-size: 12px; font-weight: 200;" fill="rgb(33, 33, 33)" stroke="none" stroke-width="1px">20k</text><text x="604.2011570335192" y="0" dx="0em" dy="0.95em" style="text-anchor: middle; visibility: inherit; font-family: Roboto, sans-serif; font-size: 12px; font-weight: 200;" fill="rgb(33, 33, 33)" stroke="none" stroke-width="1px">25k</text><text x="718.5898276096848" y="0" dx="0em" dy="0.95em" style="text-anchor: middle; visibility: inherit; font-family: Roboto, sans-serif; font-size: 12px; font-weight: 200;" fill="rgb(33, 33, 33)" stroke="none" stroke-width="1px">30k</text><text x="832.9784981858503" y="0" dx="0em" dy="0.95em" style="text-anchor: middle; visibility: inherit; font-family: Roboto, sans-serif; font-size: 12px; font-weight: 200;" fill="rgb(33, 33, 33)" stroke="none" stroke-width="1px">35k</text><text x="947.3671687620157" y="0" dx="0em" dy="0.95em" style="text-anchor: middle; visibility: inherit; font-family: Roboto, sans-serif; font-size: 12px; font-weight: 200;" fill="rgb(33, 33, 33)" stroke="none" stroke-width="1px">40k</text><text x="1061.7558393381812" y="0" dx="0em" dy="0.95em" style="text-anchor: middle; visibility: inherit; font-family: Roboto, sans-serif; font-size: 12px; font-weight: 200;" fill="rgb(33, 33, 33)" stroke="none" stroke-width="1px">45k</text><text x="1176.1445099143468" y="0" dx="0em" dy="0.95em" style="text-anchor: middle; visibility: inherit; font-family: Roboto, sans-serif; font-size: 12px; font-weight: 200;" fill="rgb(33, 33, 33)" stroke="none" stroke-width="1px">50k</text><text x="1290.5331804905124" y="0" dx="0em" dy="0.95em" style="text-anchor: middle; visibility: inherit; font-family: Roboto, sans-serif; font-size: 12px; font-weight: 200;" fill="rgb(33, 33, 33)" stroke="none" stroke-width="1px">55k</text><text x="1404.921851066678" y="0" dx="0em" dy="0.95em" style="text-anchor: middle; visibility: hidden; font-family: Roboto, sans-serif; font-size: 12px; font-weight: 200;" fill="rgb(33, 33, 33)" stroke="none" stroke-width="1px">60k</text></g><line x1="0" y1="0" x2="1407" y2="0" fill="rgb(0, 0, 0)" stroke="rgb(204, 204, 204)" stroke-width="1px"></line></g></g></g></g></svg>